<svg width="27" height="36" viewBox="0 0 27 36" fill="none" xmlns="http://www.w3.org/2000/svg">
<path d="M13.5 15.95C14.2939 15.95 14.9375 15.2561 14.9375 14.4C14.9375 13.544 14.2939 12.85 13.5 12.85C12.7061 12.85 12.0625 13.544 12.0625 14.4C12.0625 15.2561 12.7061 15.95 13.5 15.95Z" fill="black"/>
<path d="M13.5 33L12.2492 34.224L13.5 35.5021L14.7508 34.224L13.5 33ZM23.25 14.4C23.25 15.6845 22.6895 17.3981 21.6519 19.3854C20.636 21.3309 19.2613 23.3557 17.8552 25.2112C16.4538 27.0605 15.0482 28.7065 13.9909 29.8919C13.4631 30.4837 13.0242 30.9583 12.7187 31.2834C12.566 31.446 12.4468 31.571 12.3667 31.6545C12.3266 31.6962 12.2963 31.7275 12.2765 31.748C12.2666 31.7582 12.2593 31.7657 12.2548 31.7704C12.2525 31.7727 12.2509 31.7744 12.2499 31.7753C12.2495 31.7758 12.2492 31.7761 12.2491 31.7762C12.249 31.7763 12.2491 31.7762 12.249 31.7762C12.2491 31.7762 12.2492 31.776 13.5 33C14.7508 34.224 14.751 34.2238 14.7512 34.2235C14.7514 34.2233 14.7517 34.223 14.752 34.2227C14.7526 34.2221 14.7533 34.2214 14.7543 34.2204C14.7561 34.2185 14.7587 34.2159 14.7619 34.2125C14.7684 34.2059 14.7776 34.1964 14.7895 34.1842C14.8132 34.1597 14.8475 34.1243 14.8916 34.0782C14.9799 33.9862 15.1078 33.8521 15.2696 33.6799C15.593 33.3356 16.0525 32.8387 16.6029 32.2217C17.7018 30.9896 19.1712 29.2697 20.6448 27.3251C22.1137 25.3866 23.614 23.1894 24.7544 21.0054C25.873 18.8632 26.75 16.5397 26.75 14.4H23.25ZM13.5 33C14.7508 31.776 14.7509 31.7762 14.751 31.7762C14.7509 31.7762 14.751 31.7763 14.7509 31.7762C14.7508 31.7761 14.7505 31.7758 14.7501 31.7753C14.7491 31.7744 14.7475 31.7727 14.7452 31.7704C14.7407 31.7657 14.7334 31.7582 14.7235 31.748C14.7037 31.7275 14.6734 31.6962 14.6333 31.6545C14.5532 31.571 14.434 31.446 14.2813 31.2834C13.9758 30.9583 13.5369 30.4837 13.0091 29.8919C11.9518 28.7065 10.5462 27.0605 9.14477 25.2112C7.73868 23.3557 6.36398 21.3309 5.34813 19.3854C4.31047 17.3981 3.75 15.6845 3.75 14.4H0.25C0.25 16.5397 1.12703 18.8632 2.24562 21.0054C3.38602 23.1894 4.88632 25.3866 6.35523 27.3251C7.82884 29.2697 9.29822 30.9896 10.3971 32.2217C10.9475 32.8387 11.407 33.3356 11.7304 33.6799C11.8922 33.8521 12.0201 33.9862 12.1084 34.0782C12.1525 34.1243 12.1868 34.1597 12.2105 34.1842C12.2224 34.1964 12.2316 34.2059 12.2381 34.2125C12.2413 34.2159 12.2439 34.2185 12.2457 34.2204C12.2467 34.2214 12.2474 34.2221 12.248 34.2227C12.2483 34.223 12.2486 34.2233 12.2488 34.2235C12.249 34.2238 12.2492 34.224 13.5 33ZM3.75 14.4C3.75 8.39165 8.23706 3.75 13.5 3.75V0.25C6.06039 0.25 0.25 6.71168 0.25 14.4H3.75ZM13.5 3.75C18.763 3.75 23.25 8.39165 23.25 14.4H26.75C26.75 6.71168 20.9396 0.25 13.5 0.25V3.75ZM13.5 17.7C15.3823 17.7 16.6875 16.0961 16.6875 14.4H13.1875C13.1875 14.3869 13.1933 14.3493 13.2333 14.306C13.2755 14.2606 13.3691 14.2 13.5 14.2V17.7ZM16.6875 14.4C16.6875 12.704 15.3823 11.1 13.5 11.1V14.6C13.3691 14.6 13.2755 14.5394 13.2333 14.494C13.1933 14.4508 13.1875 14.4132 13.1875 14.4H16.6875ZM13.5 11.1C11.6177 11.1 10.3125 12.704 10.3125 14.4H13.8125C13.8125 14.4132 13.8067 14.4508 13.7667 14.494C13.7245 14.5394 13.6309 14.6 13.5 14.6V11.1ZM10.3125 14.4C10.3125 16.0961 11.6177 17.7 13.5 17.7V14.2C13.6309 14.2 13.7245 14.2606 13.7667 14.306C13.8067 14.3493 13.8125 14.3869 13.8125 14.4H10.3125Z" fill="black"/>
</svg>
