<svg width="207" height="75" viewBox="0 0 207 75" fill="none" xmlns="http://www.w3.org/2000/svg">
<mask id="path-1-outside-1_52_458" maskUnits="userSpaceOnUse" x="0" y="0" width="207" height="79" fill="black">
<rect fill="white" width="207" height="79"/>
<path d="M23.8901 59.0859C20.2495 60.4453 15.6479 61.125 10.0854 61.125C9.14795 61.125 8.3042 60.7344 7.5542 59.9531C6.81982 59.1719 6.45264 58.3359 6.45264 57.4453V32.6016C6.40576 31.5391 6.3667 30.4766 6.33545 29.4141C6.28857 28.2109 6.32764 27.1953 6.45264 26.3672C6.67139 24.8984 8.03857 24.0078 10.5542 23.6953C11.7417 23.3516 13.7104 23.1797 16.4604 23.1797C19.4136 23.1797 22.2417 24.1328 24.9448 26.0391C28.1167 28.2578 29.7026 31.0312 29.7026 34.3594C29.7026 36.1562 29.3745 37.6719 28.7183 38.9062C28.2026 39.9062 27.3042 40.9766 26.0229 42.1172C27.5386 42.8516 28.8823 43.9609 30.0542 45.4453C31.3823 47.1016 32.0464 48.75 32.0464 50.3906C32.0464 52.4688 30.9136 54.4375 28.6479 56.2969C27.1323 57.5312 25.5464 58.4609 23.8901 59.0859ZM16.4604 29.5312C14.4448 29.5312 13.2339 29.5469 12.8276 29.5781L12.8511 34.5469L12.8276 39.4688C14.2495 39.6406 15.3198 39.6953 16.0386 39.6328C20.8198 39.2578 23.2104 37.5 23.2104 34.3594C23.2104 33.25 22.5073 32.1797 21.1011 31.1484C19.6479 30.0703 18.1011 29.5312 16.4604 29.5312ZM19.2026 46.1016C17.7808 46.1016 15.6558 46.0469 12.8276 45.9375V54.7031C15.5151 54.5625 18.4292 54.0469 21.5698 53.1562C24.3198 52.375 25.6792 51.5312 25.6479 50.625C25.6011 49.4219 24.7183 48.3516 22.9995 47.4141C21.6558 46.6641 20.3901 46.2266 19.2026 46.1016ZM44.7612 60.7734C44.4019 60.7734 43.8315 60.3828 43.0503 59.6016C42.3315 59.9453 41.6987 60.2031 41.1519 60.375C40.605 60.5547 40.1401 60.6445 39.7573 60.6445C37.8745 60.6445 36.4604 60.1406 35.5151 59.1328C34.5776 58.125 34.1089 56.6172 34.1089 54.6094C34.1089 52.7266 34.8042 51.1172 36.1948 49.7812C37.5854 48.4375 39.2495 47.7656 41.187 47.7656C41.9292 47.7656 42.7886 47.9766 43.7651 48.3984C44.9448 48.9062 45.5347 49.4961 45.5347 50.168C45.5347 50.4492 45.4448 50.6953 45.2651 50.9062C45.187 51.2188 45.1245 51.6133 45.0776 52.0898C45.0386 52.5586 45.019 53.1094 45.019 53.7422C45.019 55.2344 45.1245 56.3086 45.3354 56.9648C45.3589 57.0352 45.5386 57.4414 45.8745 58.1836C46.1792 58.8555 46.3315 59.2383 46.3315 59.332C46.3315 59.7461 46.1714 60.0898 45.8511 60.3633C45.5386 60.6367 45.1753 60.7734 44.7612 60.7734ZM41.855 52.7344C41.855 52.4844 41.8706 52.1992 41.9019 51.8789C41.9409 51.5508 41.9956 51.1875 42.0659 50.7891C41.9097 50.7109 41.769 50.6562 41.644 50.625C41.5269 50.5859 41.4253 50.5664 41.3394 50.5664C40.2769 50.5664 39.3472 50.9844 38.5503 51.8203C37.7534 52.6484 37.355 53.6094 37.355 54.7031C37.355 55.75 37.5425 56.5391 37.9175 57.0703C38.2925 57.5938 38.855 57.8555 39.605 57.8555C40.0894 57.8555 40.5464 57.7773 40.9761 57.6211C41.4136 57.457 41.8237 57.2188 42.2065 56.9062C41.9722 55.0469 41.855 53.6562 41.855 52.7344ZM61.3433 45.9595C60.5522 45.9595 59.9678 45.542 59.5898 44.707C59.4141 44.3115 59.2383 44.0742 59.0625 43.9951C58.9307 43.9336 58.5835 43.9028 58.021 43.9028C56.9136 43.9028 55.6348 44.7642 54.1846 46.4868C52.1543 48.895 51.1392 51.1494 51.1392 53.25C51.1392 54.208 51.46 55.0298 52.1016 55.7153C52.7432 56.4009 53.5122 56.7437 54.4087 56.7437C55.2788 56.7437 56.1621 56.5151 57.0586 56.0581C57.375 55.8911 58.043 55.4604 59.0625 54.7661C59.748 54.3091 60.2666 54.0806 60.6182 54.0806C61.1455 54.0806 61.5938 54.2739 61.9629 54.6606C62.3057 55.021 62.4771 55.4341 62.4771 55.8999C62.4771 56.4185 62.2485 56.8711 61.7915 57.2578C59.3745 59.2969 56.9136 60.3164 54.4087 60.3164C52.4312 60.3164 50.7612 59.5957 49.3989 58.1543C48.0981 56.7656 47.4478 55.1309 47.4478 53.25C47.4478 50.3057 48.7354 47.2998 51.3105 44.2324C53.499 41.6309 55.7358 40.3301 58.021 40.3301C58.4077 40.3301 58.7549 40.3433 59.0625 40.3696C59.3789 40.396 59.6558 40.4355 59.8931 40.4883C60.2798 40.1104 60.7456 39.9214 61.2905 39.9214C62.187 39.9214 62.7407 40.4355 62.9517 41.4639C63.1011 42.2021 63.1758 43.0635 63.1758 44.0479C63.1758 44.4873 63.0483 44.8872 62.7935 45.2476C62.4595 45.7222 61.9761 45.9595 61.3433 45.9595ZM79.6211 60.7007C78.721 60.7007 78.0374 60.2677 77.5703 59.4019C77.012 58.3651 76.1746 57.1403 75.0581 55.7275C73.3263 53.5286 72.4092 52.3608 72.3066 52.2241C71.3952 52.8963 70.6432 53.409 70.0508 53.7622C69.9368 55.3459 69.8799 56.8612 69.8799 58.3081C69.8799 58.9689 69.6577 59.5158 69.2134 59.9487C68.769 60.3817 68.2051 60.5981 67.5215 60.5981C65.915 60.5981 65.1118 59.6411 65.1118 57.7271C65.1118 56.827 65.1745 55.4826 65.2998 53.6938C65.4365 51.8937 65.5049 50.5436 65.5049 49.6436C65.5049 47.9915 65.5277 46.106 65.5732 43.9868C65.6302 41.8563 65.6587 39.9764 65.6587 38.3472C65.6587 37.8573 65.6302 37.2819 65.5732 36.6211C65.5277 35.9489 65.5049 35.3678 65.5049 34.8779C65.5049 34.2171 65.7271 33.6759 66.1714 33.2544C66.6157 32.8215 67.1797 32.605 67.8633 32.605C68.5469 32.605 69.1108 32.8215 69.5552 33.2544C69.9995 33.6759 70.2217 34.2171 70.2217 34.8779C70.2217 35.3792 70.2502 35.9717 70.3071 36.6553C70.3641 37.3389 70.3926 37.9313 70.3926 38.4326C70.3926 39.7884 70.3584 41.3949 70.29 43.252C70.2217 45.0293 70.1932 46.613 70.2046 48.0029C71.7541 46.8066 74.1125 44.6305 77.2798 41.4746C77.7811 40.9733 78.3507 40.7227 78.9888 40.7227C79.6268 40.7227 80.1908 40.9562 80.6807 41.4233C81.1706 41.8905 81.4155 42.4316 81.4155 43.0469C81.4155 43.571 81.1934 44.078 80.749 44.5679C79.4046 46.0718 77.8039 47.644 75.9468 49.2847L79.5015 53.8647C81.2218 56.1548 82.082 57.6815 82.082 58.4448C82.082 59.0715 81.8314 59.6012 81.3301 60.0342C80.8288 60.4785 80.2591 60.7007 79.6211 60.7007ZM94.2485 61.2388C93.0448 61.2388 91.778 61.0988 90.4482 60.8188L90.4272 69.3853C90.4272 70.1971 90.1543 70.869 89.6084 71.4009C89.0625 71.9328 88.3696 72.1987 87.5298 72.1987C86.6899 72.1987 85.9971 71.9328 85.4512 71.4009C84.9053 70.869 84.6323 70.1971 84.6323 69.3853C84.6323 68.7274 84.6463 66.1169 84.6743 61.5537C84.7023 58.1663 84.7023 55.4019 84.6743 53.2603C84.6323 50.2368 84.5343 47.6333 84.3804 45.4497C84.1704 42.4403 84.0654 41.0615 84.0654 41.3135C84.0654 40.1517 84.3244 39.1579 84.8423 38.332C85.4442 37.3942 86.256 36.9253 87.2778 36.9253C88.0617 36.9253 88.7196 37.1912 89.2515 37.7231C89.7834 38.255 90.0493 38.8919 90.0493 39.6338L90.0283 39.8438C90.9661 39.3118 91.904 38.9199 92.8418 38.668C93.7936 38.402 94.7454 38.269 95.6973 38.269C98.9167 38.269 101.268 39.6338 102.752 42.3633C103.858 44.4209 104.411 47.0874 104.411 50.3628C104.411 53.4282 103.536 55.9688 101.786 57.9844C99.9105 60.154 97.3979 61.2388 94.2485 61.2388ZM95.6973 43.875C94.8154 43.875 93.9196 44.085 93.0098 44.5049C92.0999 44.9108 91.1831 45.5267 90.2593 46.3525C90.4272 49.236 90.5112 52.1265 90.5112 55.0239C91.757 55.4299 93.0028 55.6328 94.2485 55.6328C95.6903 55.6328 96.7961 55.1219 97.5659 54.1001C98.2658 53.1763 98.6157 51.9305 98.6157 50.3628C98.6157 48.4731 98.5317 47.1644 98.3638 46.4365C97.9578 44.7288 97.069 43.875 95.6973 43.875ZM129.92 61.6758C129.142 61.6758 127.906 60.8294 126.213 59.1367C124.656 59.8815 123.285 60.4401 122.1 60.8125C120.915 61.2018 119.908 61.3965 119.079 61.3965C114.999 61.3965 111.935 60.3047 109.887 58.1211C107.856 55.9375 106.84 52.6706 106.84 48.3203C106.84 44.2409 108.347 40.7539 111.36 37.8594C114.373 34.9479 117.978 33.4922 122.176 33.4922C123.784 33.4922 125.646 33.9492 127.762 34.8633C130.318 35.9635 131.596 37.2415 131.596 38.6973C131.596 39.3066 131.402 39.8398 131.012 40.2969C130.843 40.974 130.708 41.8288 130.606 42.8613C130.521 43.877 130.479 45.0703 130.479 46.4414C130.479 49.6745 130.708 52.002 131.165 53.4238C131.215 53.5762 131.605 54.4564 132.333 56.0645C132.993 57.5202 133.323 58.3496 133.323 58.5527C133.323 59.4499 132.976 60.1947 132.282 60.7871C131.605 61.3796 130.818 61.6758 129.92 61.6758ZM123.624 44.2578C123.624 43.7161 123.657 43.0983 123.725 42.4043C123.81 41.6934 123.928 40.9062 124.081 40.043C123.742 39.8737 123.437 39.7552 123.167 39.6875C122.913 39.6029 122.693 39.5605 122.506 39.5605C120.204 39.5605 118.19 40.4661 116.463 42.2773C114.737 44.0716 113.874 46.1536 113.874 48.5234C113.874 50.7917 114.28 52.5013 115.092 53.6523C115.905 54.7865 117.124 55.3535 118.749 55.3535C119.798 55.3535 120.788 55.1842 121.719 54.8457C122.667 54.4902 123.556 53.974 124.385 53.2969C123.877 49.2682 123.624 46.2552 123.624 44.2578ZM150.229 61.7842C146.075 61.7842 142.592 60.6042 139.779 58.2441C136.815 55.752 135.333 52.4668 135.333 48.3887C135.333 44.6315 136.664 40.7516 139.326 36.749C142.347 32.18 145.858 29.8955 149.861 29.8955C151.824 29.8955 154.118 30.4242 156.743 31.4814C159.933 32.7842 161.529 34.2852 161.529 35.9844C161.529 36.9095 161.208 37.7308 160.566 38.4482C159.886 39.2223 159.008 39.6094 157.932 39.6094C157.12 39.6094 156.139 39.1751 154.987 38.3066C153.854 37.4193 152.145 36.9756 149.861 36.9756C148.407 36.9756 146.831 38.401 145.131 41.252C143.508 44.0085 142.696 46.3874 142.696 48.3887C142.696 50.3711 143.413 51.9287 144.848 53.0615C146.208 54.1377 148.001 54.6758 150.229 54.6758C151.494 54.6758 153.042 54.1943 154.874 53.2314C156.705 52.2686 157.866 51.7871 158.357 51.7871C159.376 51.7871 160.245 52.1553 160.962 52.8916C161.699 53.6279 162.067 54.4681 162.067 55.4121C162.067 56.8848 160.462 58.3574 157.252 59.8301C154.383 61.1328 152.042 61.7842 150.229 61.7842ZM195.417 61.3613C193.668 61.3613 192.34 60.5202 191.432 58.8379C190.347 56.8236 188.721 54.444 186.551 51.6992C183.187 47.4271 181.405 45.1582 181.206 44.8926C179.435 46.1986 177.974 47.1947 176.823 47.8809C176.601 50.9577 176.491 53.9017 176.491 56.7129C176.491 57.9967 176.059 59.0592 175.196 59.9004C174.333 60.7415 173.237 61.1621 171.909 61.1621C168.788 61.1621 167.227 59.3027 167.227 55.584C167.227 53.8353 167.349 51.2233 167.592 47.748C167.858 44.2507 167.991 41.6276 167.991 39.8789C167.991 36.6693 168.035 33.0059 168.124 28.8887C168.234 24.7493 168.29 21.097 168.29 17.9316C168.29 16.9798 168.234 15.862 168.124 14.5781C168.035 13.2721 167.991 12.1432 167.991 11.1914C167.991 9.90755 168.422 8.85612 169.286 8.03711C170.149 7.19596 171.245 6.77539 172.573 6.77539C173.901 6.77539 174.997 7.19596 175.86 8.03711C176.723 8.85612 177.155 9.90755 177.155 11.1914C177.155 12.1654 177.21 13.3164 177.321 14.6445C177.431 15.9727 177.487 17.1237 177.487 18.0977C177.487 20.7318 177.42 23.8529 177.288 27.4609C177.155 30.9141 177.099 33.9909 177.122 36.6914C180.132 34.3672 184.714 30.1393 190.868 24.0078C191.842 23.0339 192.948 22.5469 194.188 22.5469C195.428 22.5469 196.523 23.0007 197.475 23.9082C198.427 24.8158 198.903 25.8672 198.903 27.0625C198.903 28.0807 198.471 29.0658 197.608 30.0176C194.996 32.9395 191.886 35.9941 188.278 39.1816L195.184 48.0801C198.527 52.5293 200.198 55.4954 200.198 56.9785C200.198 58.196 199.711 59.2253 198.737 60.0664C197.763 60.9297 196.656 61.3613 195.417 61.3613Z"/>
</mask>
<path d="M23.8901 59.0859C20.2495 60.4453 15.6479 61.125 10.0854 61.125C9.14795 61.125 8.3042 60.7344 7.5542 59.9531C6.81982 59.1719 6.45264 58.3359 6.45264 57.4453V32.6016C6.40576 31.5391 6.3667 30.4766 6.33545 29.4141C6.28857 28.2109 6.32764 27.1953 6.45264 26.3672C6.67139 24.8984 8.03857 24.0078 10.5542 23.6953C11.7417 23.3516 13.7104 23.1797 16.4604 23.1797C19.4136 23.1797 22.2417 24.1328 24.9448 26.0391C28.1167 28.2578 29.7026 31.0312 29.7026 34.3594C29.7026 36.1562 29.3745 37.6719 28.7183 38.9062C28.2026 39.9062 27.3042 40.9766 26.0229 42.1172C27.5386 42.8516 28.8823 43.9609 30.0542 45.4453C31.3823 47.1016 32.0464 48.75 32.0464 50.3906C32.0464 52.4688 30.9136 54.4375 28.6479 56.2969C27.1323 57.5312 25.5464 58.4609 23.8901 59.0859ZM16.4604 29.5312C14.4448 29.5312 13.2339 29.5469 12.8276 29.5781L12.8511 34.5469L12.8276 39.4688C14.2495 39.6406 15.3198 39.6953 16.0386 39.6328C20.8198 39.2578 23.2104 37.5 23.2104 34.3594C23.2104 33.25 22.5073 32.1797 21.1011 31.1484C19.6479 30.0703 18.1011 29.5312 16.4604 29.5312ZM19.2026 46.1016C17.7808 46.1016 15.6558 46.0469 12.8276 45.9375V54.7031C15.5151 54.5625 18.4292 54.0469 21.5698 53.1562C24.3198 52.375 25.6792 51.5312 25.6479 50.625C25.6011 49.4219 24.7183 48.3516 22.9995 47.4141C21.6558 46.6641 20.3901 46.2266 19.2026 46.1016ZM44.7612 60.7734C44.4019 60.7734 43.8315 60.3828 43.0503 59.6016C42.3315 59.9453 41.6987 60.2031 41.1519 60.375C40.605 60.5547 40.1401 60.6445 39.7573 60.6445C37.8745 60.6445 36.4604 60.1406 35.5151 59.1328C34.5776 58.125 34.1089 56.6172 34.1089 54.6094C34.1089 52.7266 34.8042 51.1172 36.1948 49.7812C37.5854 48.4375 39.2495 47.7656 41.187 47.7656C41.9292 47.7656 42.7886 47.9766 43.7651 48.3984C44.9448 48.9062 45.5347 49.4961 45.5347 50.168C45.5347 50.4492 45.4448 50.6953 45.2651 50.9062C45.187 51.2188 45.1245 51.6133 45.0776 52.0898C45.0386 52.5586 45.019 53.1094 45.019 53.7422C45.019 55.2344 45.1245 56.3086 45.3354 56.9648C45.3589 57.0352 45.5386 57.4414 45.8745 58.1836C46.1792 58.8555 46.3315 59.2383 46.3315 59.332C46.3315 59.7461 46.1714 60.0898 45.8511 60.3633C45.5386 60.6367 45.1753 60.7734 44.7612 60.7734ZM41.855 52.7344C41.855 52.4844 41.8706 52.1992 41.9019 51.8789C41.9409 51.5508 41.9956 51.1875 42.0659 50.7891C41.9097 50.7109 41.769 50.6562 41.644 50.625C41.5269 50.5859 41.4253 50.5664 41.3394 50.5664C40.2769 50.5664 39.3472 50.9844 38.5503 51.8203C37.7534 52.6484 37.355 53.6094 37.355 54.7031C37.355 55.75 37.5425 56.5391 37.9175 57.0703C38.2925 57.5938 38.855 57.8555 39.605 57.8555C40.0894 57.8555 40.5464 57.7773 40.9761 57.6211C41.4136 57.457 41.8237 57.2188 42.2065 56.9062C41.9722 55.0469 41.855 53.6562 41.855 52.7344ZM61.3433 45.9595C60.5522 45.9595 59.9678 45.542 59.5898 44.707C59.4141 44.3115 59.2383 44.0742 59.0625 43.9951C58.9307 43.9336 58.5835 43.9028 58.021 43.9028C56.9136 43.9028 55.6348 44.7642 54.1846 46.4868C52.1543 48.895 51.1392 51.1494 51.1392 53.25C51.1392 54.208 51.46 55.0298 52.1016 55.7153C52.7432 56.4009 53.5122 56.7437 54.4087 56.7437C55.2788 56.7437 56.1621 56.5151 57.0586 56.0581C57.375 55.8911 58.043 55.4604 59.0625 54.7661C59.748 54.3091 60.2666 54.0806 60.6182 54.0806C61.1455 54.0806 61.5938 54.2739 61.9629 54.6606C62.3057 55.021 62.4771 55.4341 62.4771 55.8999C62.4771 56.4185 62.2485 56.8711 61.7915 57.2578C59.3745 59.2969 56.9136 60.3164 54.4087 60.3164C52.4312 60.3164 50.7612 59.5957 49.3989 58.1543C48.0981 56.7656 47.4478 55.1309 47.4478 53.25C47.4478 50.3057 48.7354 47.2998 51.3105 44.2324C53.499 41.6309 55.7358 40.3301 58.021 40.3301C58.4077 40.3301 58.7549 40.3433 59.0625 40.3696C59.3789 40.396 59.6558 40.4355 59.8931 40.4883C60.2798 40.1104 60.7456 39.9214 61.2905 39.9214C62.187 39.9214 62.7407 40.4355 62.9517 41.4639C63.1011 42.2021 63.1758 43.0635 63.1758 44.0479C63.1758 44.4873 63.0483 44.8872 62.7935 45.2476C62.4595 45.7222 61.9761 45.9595 61.3433 45.9595ZM79.6211 60.7007C78.721 60.7007 78.0374 60.2677 77.5703 59.4019C77.012 58.3651 76.1746 57.1403 75.0581 55.7275C73.3263 53.5286 72.4092 52.3608 72.3066 52.2241C71.3952 52.8963 70.6432 53.409 70.0508 53.7622C69.9368 55.3459 69.8799 56.8612 69.8799 58.3081C69.8799 58.9689 69.6577 59.5158 69.2134 59.9487C68.769 60.3817 68.2051 60.5981 67.5215 60.5981C65.915 60.5981 65.1118 59.6411 65.1118 57.7271C65.1118 56.827 65.1745 55.4826 65.2998 53.6938C65.4365 51.8937 65.5049 50.5436 65.5049 49.6436C65.5049 47.9915 65.5277 46.106 65.5732 43.9868C65.6302 41.8563 65.6587 39.9764 65.6587 38.3472C65.6587 37.8573 65.6302 37.2819 65.5732 36.6211C65.5277 35.9489 65.5049 35.3678 65.5049 34.8779C65.5049 34.2171 65.7271 33.6759 66.1714 33.2544C66.6157 32.8215 67.1797 32.605 67.8633 32.605C68.5469 32.605 69.1108 32.8215 69.5552 33.2544C69.9995 33.6759 70.2217 34.2171 70.2217 34.8779C70.2217 35.3792 70.2502 35.9717 70.3071 36.6553C70.3641 37.3389 70.3926 37.9313 70.3926 38.4326C70.3926 39.7884 70.3584 41.3949 70.29 43.252C70.2217 45.0293 70.1932 46.613 70.2046 48.0029C71.7541 46.8066 74.1125 44.6305 77.2798 41.4746C77.7811 40.9733 78.3507 40.7227 78.9888 40.7227C79.6268 40.7227 80.1908 40.9562 80.6807 41.4233C81.1706 41.8905 81.4155 42.4316 81.4155 43.0469C81.4155 43.571 81.1934 44.078 80.749 44.5679C79.4046 46.0718 77.8039 47.644 75.9468 49.2847L79.5015 53.8647C81.2218 56.1548 82.082 57.6815 82.082 58.4448C82.082 59.0715 81.8314 59.6012 81.3301 60.0342C80.8288 60.4785 80.2591 60.7007 79.6211 60.7007ZM94.2485 61.2388C93.0448 61.2388 91.778 61.0988 90.4482 60.8188L90.4272 69.3853C90.4272 70.1971 90.1543 70.869 89.6084 71.4009C89.0625 71.9328 88.3696 72.1987 87.5298 72.1987C86.6899 72.1987 85.9971 71.9328 85.4512 71.4009C84.9053 70.869 84.6323 70.1971 84.6323 69.3853C84.6323 68.7274 84.6463 66.1169 84.6743 61.5537C84.7023 58.1663 84.7023 55.4019 84.6743 53.2603C84.6323 50.2368 84.5343 47.6333 84.3804 45.4497C84.1704 42.4403 84.0654 41.0615 84.0654 41.3135C84.0654 40.1517 84.3244 39.1579 84.8423 38.332C85.4442 37.3942 86.256 36.9253 87.2778 36.9253C88.0617 36.9253 88.7196 37.1912 89.2515 37.7231C89.7834 38.255 90.0493 38.8919 90.0493 39.6338L90.0283 39.8438C90.9661 39.3118 91.904 38.9199 92.8418 38.668C93.7936 38.402 94.7454 38.269 95.6973 38.269C98.9167 38.269 101.268 39.6338 102.752 42.3633C103.858 44.4209 104.411 47.0874 104.411 50.3628C104.411 53.4282 103.536 55.9688 101.786 57.9844C99.9105 60.154 97.3979 61.2388 94.2485 61.2388ZM95.6973 43.875C94.8154 43.875 93.9196 44.085 93.0098 44.5049C92.0999 44.9108 91.1831 45.5267 90.2593 46.3525C90.4272 49.236 90.5112 52.1265 90.5112 55.0239C91.757 55.4299 93.0028 55.6328 94.2485 55.6328C95.6903 55.6328 96.7961 55.1219 97.5659 54.1001C98.2658 53.1763 98.6157 51.9305 98.6157 50.3628C98.6157 48.4731 98.5317 47.1644 98.3638 46.4365C97.9578 44.7288 97.069 43.875 95.6973 43.875ZM129.92 61.6758C129.142 61.6758 127.906 60.8294 126.213 59.1367C124.656 59.8815 123.285 60.4401 122.1 60.8125C120.915 61.2018 119.908 61.3965 119.079 61.3965C114.999 61.3965 111.935 60.3047 109.887 58.1211C107.856 55.9375 106.84 52.6706 106.84 48.3203C106.84 44.2409 108.347 40.7539 111.36 37.8594C114.373 34.9479 117.978 33.4922 122.176 33.4922C123.784 33.4922 125.646 33.9492 127.762 34.8633C130.318 35.9635 131.596 37.2415 131.596 38.6973C131.596 39.3066 131.402 39.8398 131.012 40.2969C130.843 40.974 130.708 41.8288 130.606 42.8613C130.521 43.877 130.479 45.0703 130.479 46.4414C130.479 49.6745 130.708 52.002 131.165 53.4238C131.215 53.5762 131.605 54.4564 132.333 56.0645C132.993 57.5202 133.323 58.3496 133.323 58.5527C133.323 59.4499 132.976 60.1947 132.282 60.7871C131.605 61.3796 130.818 61.6758 129.92 61.6758ZM123.624 44.2578C123.624 43.7161 123.657 43.0983 123.725 42.4043C123.81 41.6934 123.928 40.9062 124.081 40.043C123.742 39.8737 123.437 39.7552 123.167 39.6875C122.913 39.6029 122.693 39.5605 122.506 39.5605C120.204 39.5605 118.19 40.4661 116.463 42.2773C114.737 44.0716 113.874 46.1536 113.874 48.5234C113.874 50.7917 114.28 52.5013 115.092 53.6523C115.905 54.7865 117.124 55.3535 118.749 55.3535C119.798 55.3535 120.788 55.1842 121.719 54.8457C122.667 54.4902 123.556 53.974 124.385 53.2969C123.877 49.2682 123.624 46.2552 123.624 44.2578ZM150.229 61.7842C146.075 61.7842 142.592 60.6042 139.779 58.2441C136.815 55.752 135.333 52.4668 135.333 48.3887C135.333 44.6315 136.664 40.7516 139.326 36.749C142.347 32.18 145.858 29.8955 149.861 29.8955C151.824 29.8955 154.118 30.4242 156.743 31.4814C159.933 32.7842 161.529 34.2852 161.529 35.9844C161.529 36.9095 161.208 37.7308 160.566 38.4482C159.886 39.2223 159.008 39.6094 157.932 39.6094C157.12 39.6094 156.139 39.1751 154.987 38.3066C153.854 37.4193 152.145 36.9756 149.861 36.9756C148.407 36.9756 146.831 38.401 145.131 41.252C143.508 44.0085 142.696 46.3874 142.696 48.3887C142.696 50.3711 143.413 51.9287 144.848 53.0615C146.208 54.1377 148.001 54.6758 150.229 54.6758C151.494 54.6758 153.042 54.1943 154.874 53.2314C156.705 52.2686 157.866 51.7871 158.357 51.7871C159.376 51.7871 160.245 52.1553 160.962 52.8916C161.699 53.6279 162.067 54.4681 162.067 55.4121C162.067 56.8848 160.462 58.3574 157.252 59.8301C154.383 61.1328 152.042 61.7842 150.229 61.7842ZM195.417 61.3613C193.668 61.3613 192.34 60.5202 191.432 58.8379C190.347 56.8236 188.721 54.444 186.551 51.6992C183.187 47.4271 181.405 45.1582 181.206 44.8926C179.435 46.1986 177.974 47.1947 176.823 47.8809C176.601 50.9577 176.491 53.9017 176.491 56.7129C176.491 57.9967 176.059 59.0592 175.196 59.9004C174.333 60.7415 173.237 61.1621 171.909 61.1621C168.788 61.1621 167.227 59.3027 167.227 55.584C167.227 53.8353 167.349 51.2233 167.592 47.748C167.858 44.2507 167.991 41.6276 167.991 39.8789C167.991 36.6693 168.035 33.0059 168.124 28.8887C168.234 24.7493 168.29 21.097 168.29 17.9316C168.29 16.9798 168.234 15.862 168.124 14.5781C168.035 13.2721 167.991 12.1432 167.991 11.1914C167.991 9.90755 168.422 8.85612 169.286 8.03711C170.149 7.19596 171.245 6.77539 172.573 6.77539C173.901 6.77539 174.997 7.19596 175.86 8.03711C176.723 8.85612 177.155 9.90755 177.155 11.1914C177.155 12.1654 177.21 13.3164 177.321 14.6445C177.431 15.9727 177.487 17.1237 177.487 18.0977C177.487 20.7318 177.42 23.8529 177.288 27.4609C177.155 30.9141 177.099 33.9909 177.122 36.6914C180.132 34.3672 184.714 30.1393 190.868 24.0078C191.842 23.0339 192.948 22.5469 194.188 22.5469C195.428 22.5469 196.523 23.0007 197.475 23.9082C198.427 24.8158 198.903 25.8672 198.903 27.0625C198.903 28.0807 198.471 29.0658 197.608 30.0176C194.996 32.9395 191.886 35.9941 188.278 39.1816L195.184 48.0801C198.527 52.5293 200.198 55.4954 200.198 56.9785C200.198 58.196 199.711 59.2253 198.737 60.0664C197.763 60.9297 196.656 61.3613 195.417 61.3613Z" fill="white"/>
<path d="M23.8901 59.0859L25.9889 64.7069L25.9987 64.7032L26.0085 64.6995L23.8901 59.0859ZM7.5542 59.9531L3.18243 64.0626L3.20403 64.0856L3.22588 64.1083L7.5542 59.9531ZM6.45264 32.6016H12.4526V32.4693L12.4468 32.3371L6.45264 32.6016ZM6.33545 29.4141L12.3329 29.2377L12.332 29.2091L12.3309 29.1805L6.33545 29.4141ZM6.45264 26.3672L12.3854 27.2627L12.3872 27.2511L6.45264 26.3672ZM10.5542 23.6953L11.2939 29.6495L11.7658 29.5909L12.2225 29.4587L10.5542 23.6953ZM24.9448 26.0391L21.487 30.9424L21.4963 30.949L21.5057 30.9556L24.9448 26.0391ZM28.7183 38.9062L23.4204 36.0897L23.4027 36.123L23.3854 36.1565L28.7183 38.9062ZM26.0229 42.1172L22.0334 37.6357L15.3301 43.6033L23.4067 47.5167L26.0229 42.1172ZM30.0542 45.4453L25.3449 49.1632L25.359 49.1811L25.3733 49.1989L30.0542 45.4453ZM28.6479 56.2969L32.4369 60.9492L32.4456 60.942L32.4543 60.9349L28.6479 56.2969ZM12.8276 29.5781L12.3675 23.5958L6.80137 24.024L6.8277 29.6064L12.8276 29.5781ZM12.8511 34.5469L18.851 34.5754L18.8511 34.547L18.851 34.5186L12.8511 34.5469ZM12.8276 39.4688L6.8277 39.4402L6.80226 44.7841L12.1076 45.4254L12.8276 39.4688ZM16.0386 39.6328L15.5694 33.6512L15.5441 33.6532L15.5188 33.6554L16.0386 39.6328ZM21.1011 31.1484L17.526 35.967L17.5394 35.977L17.5529 35.9869L21.1011 31.1484ZM19.2026 46.1016L19.8307 40.1345L19.5176 40.1016H19.2026V46.1016ZM12.8276 45.9375L13.0595 39.942L6.82764 39.701V45.9375H12.8276ZM12.8276 54.7031H6.82764V61.0253L13.1412 60.6949L12.8276 54.7031ZM21.5698 53.1562L23.2068 58.9286L23.2095 58.9279L21.5698 53.1562ZM25.6479 50.625L31.6444 50.4182L31.6439 50.4048L31.6434 50.3914L25.6479 50.625ZM22.9995 47.4141L20.0753 52.6532L20.1008 52.6675L20.1264 52.6814L22.9995 47.4141ZM21.7913 53.465C19.0443 54.4907 15.2148 55.125 10.0854 55.125V67.125C16.0811 67.125 21.4547 66.3999 25.9889 64.7069L21.7913 53.465ZM10.0854 55.125C10.4798 55.125 10.8954 55.2137 11.2703 55.3872C11.6277 55.5527 11.8243 55.7373 11.8825 55.7979L3.22588 64.1083C4.91592 65.8688 7.25702 67.125 10.0854 67.125V55.125ZM11.926 55.8437C11.9467 55.8658 12.0872 56.0217 12.2214 56.3272C12.3633 56.6502 12.4526 57.0387 12.4526 57.4453H0.452637C0.452637 60.1637 1.628 62.4089 3.18243 64.0626L11.926 55.8437ZM12.4526 57.4453V32.6016H0.452637V57.4453H12.4526ZM12.4468 32.3371C12.4012 31.3039 12.3632 30.2708 12.3329 29.2377L0.338043 29.5905C0.370157 30.6823 0.410298 31.7742 0.458467 32.866L12.4468 32.3371ZM12.3309 29.1805C12.2929 28.2062 12.3354 27.5944 12.3854 27.2627L0.519842 25.4717C0.319906 26.7962 0.284208 28.2157 0.339998 29.6477L12.3309 29.1805ZM12.3872 27.2511C12.3165 27.7253 12.1331 28.243 11.8116 28.7212C11.4986 29.1869 11.1514 29.4724 10.9171 29.625C10.5303 29.877 10.4892 29.7495 11.2939 29.6495L9.81454 17.7411C8.10359 17.9536 6.12107 18.4277 4.36711 19.5703C2.40437 20.8489 0.907097 22.8715 0.518096 25.4833L12.3872 27.2511ZM12.2225 29.4587C12.2225 29.4587 12.223 29.4586 12.224 29.4583C12.225 29.458 12.2264 29.4576 12.2283 29.4571C12.2322 29.4561 12.2378 29.4546 12.2454 29.4527C12.2606 29.4489 12.2824 29.4437 12.3114 29.4374C12.3701 29.4246 12.4516 29.4087 12.5587 29.3912C12.7759 29.3557 13.067 29.3187 13.4432 29.2859C14.2018 29.2196 15.1978 29.1797 16.4604 29.1797V17.1797C13.663 17.1797 10.9538 17.3333 8.88585 17.9319L12.2225 29.4587ZM16.4604 29.1797C18.029 29.1797 19.669 29.6604 21.487 30.9424L28.4027 21.1357C24.8144 18.6052 20.7982 17.1797 16.4604 17.1797V29.1797ZM21.5057 30.9556C23.3736 32.2622 23.7026 33.3304 23.7026 34.3594H35.7026C35.7026 28.7321 32.8598 24.2534 28.384 21.1225L21.5057 30.9556ZM23.7026 34.3594C23.7026 35.4466 23.5027 35.9349 23.4204 36.0897L34.0161 41.7228C35.2463 39.4089 35.7026 36.8659 35.7026 34.3594H23.7026ZM23.3854 36.1565C23.3364 36.2517 23.0231 36.7546 22.0334 37.6357L30.0125 46.5986C31.5853 45.1985 33.0689 43.5608 34.0511 41.656L23.3854 36.1565ZM23.4067 47.5167C24.0112 47.8097 24.6652 48.3022 25.3449 49.1632L34.7635 41.7274C33.0995 39.6197 31.0659 37.8935 28.6392 36.7176L23.4067 47.5167ZM25.3733 49.1989C25.7393 49.6553 25.908 49.9798 25.983 50.1658C26.0196 50.2569 26.0345 50.316 26.0406 50.3461C26.0464 50.3752 26.0464 50.3882 26.0464 50.3906H38.0464C38.0464 47.0281 36.6631 44.096 34.7351 41.6918L25.3733 49.1989ZM26.0464 50.3906C26.0464 50.2833 26.089 50.2722 25.9962 50.4334C25.8793 50.6366 25.5689 51.0619 24.8416 51.6588L32.4543 60.9349C35.5129 58.4248 38.0464 54.9151 38.0464 50.3906H26.0464ZM24.859 51.6446C23.7929 52.5129 22.7634 53.0981 21.7718 53.4723L26.0085 64.6995C28.3294 63.8237 30.4718 62.5497 32.4369 60.9492L24.859 51.6446ZM16.4604 23.5312C14.5629 23.5312 13.0627 23.5423 12.3675 23.5958L13.2878 35.5605C13.2684 35.5619 13.4818 35.5507 14.1179 35.5425C14.6863 35.5351 15.464 35.5312 16.4604 35.5312V23.5312ZM6.8277 29.6064L6.85114 34.5752L18.851 34.5186L18.8276 29.5498L6.8277 29.6064ZM6.85114 34.5183L6.8277 39.4402L18.8276 39.4973L18.851 34.5754L6.85114 34.5183ZM12.1076 45.4254C13.6222 45.6085 15.1975 45.7286 16.5584 45.6103L15.5188 33.6554C15.5312 33.6543 15.3812 33.6658 15.0029 33.6465C14.6431 33.6281 14.1636 33.5866 13.5477 33.5121L12.1076 45.4254ZM16.5077 45.6144C19.3922 45.3882 22.4788 44.7002 24.9718 42.8671C27.807 40.7824 29.2104 37.7077 29.2104 34.3594H17.2104C17.2104 34.3716 17.2121 34.1477 17.3701 33.824C17.5338 33.4886 17.7501 33.2824 17.8631 33.1993C17.9466 33.1379 17.8649 33.2226 17.466 33.3412C17.0685 33.4594 16.4554 33.5817 15.5694 33.6512L16.5077 45.6144ZM29.2104 34.3594C29.2104 30.4458 26.6972 27.8118 24.6493 26.31L17.5529 35.9869C17.8739 36.2222 17.8235 36.255 17.6684 36.0189C17.4789 35.7305 17.2104 35.1479 17.2104 34.3594H29.2104ZM24.6762 26.3298C22.301 24.5676 19.5215 23.5312 16.4604 23.5312V35.5312C16.6806 35.5312 16.9949 35.573 17.526 35.967L24.6762 26.3298ZM19.2026 40.1016C17.9008 40.1016 15.87 40.0507 13.0595 39.942L12.5958 51.933C15.4415 52.0431 17.6607 52.1016 19.2026 52.1016V40.1016ZM6.82764 45.9375V54.7031H18.8276V45.9375H6.82764ZM13.1412 60.6949C16.3595 60.5265 19.7225 59.9167 23.2068 58.9286L19.9329 47.3839C17.1359 48.177 14.6708 48.5985 12.5141 48.7113L13.1412 60.6949ZM23.2095 58.9279C24.7707 58.4843 26.4287 57.8964 27.816 57.0353C28.9092 56.3568 31.7775 54.2793 31.6444 50.4182L19.6515 50.8318C19.6023 49.4037 20.1453 48.306 20.6312 47.6657C21.0625 47.0974 21.4634 46.8547 21.4877 46.8397C21.5156 46.8223 21.119 47.0469 19.9302 47.3846L23.2095 58.9279ZM31.6434 50.3914C31.472 45.9915 28.2343 43.4348 25.8726 42.1467L20.1264 52.6814C20.5691 52.9229 20.5241 52.9827 20.322 52.7377C20.2074 52.5987 20.0424 52.3608 19.9025 52.0186C19.759 51.6678 19.6686 51.2716 19.6525 50.8586L31.6434 50.3914ZM25.9237 42.1749C24.0676 41.1389 22.0216 40.3651 19.8307 40.1345L18.5745 52.0686C18.7587 52.088 19.244 52.1892 20.0753 52.6532L25.9237 42.1749ZM43.0503 59.6016L47.2929 55.3589L44.2912 52.3572L40.4616 54.1888L43.0503 59.6016ZM41.1519 60.375L39.3529 54.651L39.3158 54.6627L39.2789 54.6748L41.1519 60.375ZM35.5151 59.1328L31.122 63.2194L31.1305 63.2285L31.139 63.2376L35.5151 59.1328ZM36.1948 49.7812L40.3515 54.1081L40.3578 54.1021L40.3641 54.096L36.1948 49.7812ZM43.7651 48.3984L41.3857 53.9064L41.3928 53.9095L43.7651 48.3984ZM45.2651 50.9062L40.6977 47.0154L39.7855 48.0863L39.4443 49.451L45.2651 50.9062ZM45.0776 52.0898L39.1065 51.5025L39.1021 51.547L39.0984 51.5916L45.0776 52.0898ZM45.3354 56.9648L39.6233 58.8009L39.6331 58.8316L39.6433 58.8622L45.3354 56.9648ZM45.8745 58.1836L40.4084 60.6577L40.4101 60.6616L45.8745 58.1836ZM45.8511 60.3633L41.9555 55.7999L41.9276 55.8237L41.9 55.8478L45.8511 60.3633ZM41.9019 51.8789L35.9439 51.1696L35.9364 51.2329L35.9302 51.2963L41.9019 51.8789ZM42.0659 50.7891L47.9746 51.8318L48.7524 47.4241L44.7492 45.4225L42.0659 50.7891ZM41.644 50.625L39.7467 56.3171L39.9653 56.39L40.1888 56.4459L41.644 50.625ZM38.5503 51.8203L42.8737 55.9806L42.8835 55.9705L42.8932 55.9603L38.5503 51.8203ZM37.9175 57.0703L33.0157 60.5304L33.0278 60.5476L33.04 60.5646L37.9175 57.0703ZM40.9761 57.6211L43.0265 63.2599L43.0547 63.2496L43.0828 63.2391L40.9761 57.6211ZM42.2065 56.9062L46.0008 61.5542L48.575 59.4528L48.1594 56.1559L42.2065 56.9062ZM44.7612 54.7734C45.7221 54.7734 46.4322 55.024 46.7763 55.1686C47.1431 55.3227 47.3761 55.4766 47.4545 55.5303C47.5998 55.6298 47.5571 55.6231 47.2929 55.3589L38.8077 63.8442C39.3247 64.3613 39.9579 64.9405 40.6734 65.4306C41.1784 65.7766 42.6846 66.7734 44.7612 66.7734V54.7734ZM40.4616 54.1888C39.9079 54.4536 39.5482 54.5897 39.3529 54.651L42.9508 66.099C43.8492 65.8166 44.7552 65.4371 45.639 65.0144L40.4616 54.1888ZM39.2789 54.6748C39.1967 54.7018 39.1921 54.6982 39.2545 54.6862C39.313 54.6749 39.4895 54.6445 39.7573 54.6445V66.6445C41.0109 66.6445 42.1461 66.3639 43.0248 66.0752L39.2789 54.6748ZM39.7573 54.6445C39.3351 54.6445 39.2186 54.5862 39.2987 54.6147C39.3439 54.6308 39.4341 54.6686 39.5489 54.7422C39.6656 54.817 39.7837 54.9134 39.8913 55.028L31.139 63.2376C33.5837 65.844 36.8391 66.6445 39.7573 66.6445V54.6445ZM39.9083 55.0462C40.0155 55.1615 40.0899 55.2709 40.1372 55.3555C40.1832 55.4379 40.195 55.4812 40.19 55.4649C40.1759 55.4196 40.1089 55.165 40.1089 54.6094H28.1089C28.1089 57.446 28.7633 60.6838 31.122 63.2194L39.9083 55.0462ZM40.1089 54.6094C40.1089 54.5096 40.1179 54.4494 40.1238 54.4202C40.1294 54.392 40.1348 54.3779 40.1383 54.3699C40.1392 54.3678 40.1739 54.2788 40.3515 54.1081L32.0381 45.4544C29.502 47.8908 28.1089 51.0495 28.1089 54.6094H40.1089ZM40.3641 54.096C40.6336 53.8356 40.8018 53.7656 41.187 53.7656V41.7656C37.6972 41.7656 34.5373 43.0394 32.0255 45.4665L40.3641 54.096ZM41.187 53.7656C40.9944 53.7656 40.9097 53.739 40.9579 53.7509C41.0057 53.7626 41.1451 53.8025 41.3857 53.9064L46.1446 42.8904C44.7172 42.2738 43.0214 41.7656 41.187 41.7656V53.7656ZM41.3928 53.9095C41.6215 54.008 41.3018 53.9165 40.8496 53.4643C40.3071 52.9218 39.5347 51.7887 39.5347 50.168H51.5347C51.5347 45.4657 47.4678 43.46 46.1375 42.8873L41.3928 53.9095ZM39.5347 50.168C39.5347 49.6586 39.6182 49.0891 39.8311 48.5058C40.0446 47.9213 40.3521 47.4211 40.6977 47.0154L49.8326 54.7971C50.9521 53.4829 51.5347 51.8517 51.5347 50.168H39.5347ZM39.4443 49.451C39.2696 50.1499 39.1697 50.8596 39.1065 51.5025L51.0488 52.6772C51.0629 52.5342 51.0762 52.4357 51.0858 52.3753C51.0957 52.3124 51.0982 52.3126 51.086 52.3615L39.4443 49.451ZM39.0984 51.5916C39.0417 52.2713 39.019 52.9957 39.019 53.7422H51.019C51.019 53.223 51.0354 52.8459 51.0569 52.5881L39.0984 51.5916ZM39.019 53.7422C39.019 55.3055 39.1051 57.1889 39.6233 58.8009L51.0476 55.1288C51.0928 55.2693 51.104 55.3414 51.0992 55.3151C51.0953 55.2937 51.0831 55.2196 51.0694 55.0807C51.0415 54.7961 51.019 54.3605 51.019 53.7422H39.019ZM39.6433 58.8622C39.77 59.2423 39.9827 59.709 40.0006 59.7493C40.1009 59.9761 40.2381 60.2816 40.4084 60.6577L51.3406 55.7094C51.175 55.3434 51.0544 55.0747 50.975 54.8952C50.9345 54.8037 50.9118 54.7513 50.9019 54.728C50.8965 54.7154 50.9017 54.7272 50.9127 54.7544C50.9183 54.7682 50.9302 54.7978 50.9455 54.8379C50.9575 54.8691 50.9898 54.9543 51.0275 55.0675L39.6433 58.8622ZM40.4101 60.6616C40.5488 60.9673 40.618 61.1316 40.6425 61.1931C40.6575 61.2307 40.6292 61.1637 40.5879 61.0345C40.5676 60.971 40.522 60.824 40.4763 60.6249C40.4528 60.5225 40.4209 60.3699 40.3932 60.1815C40.3675 60.0059 40.3315 59.7068 40.3315 59.332H52.3315C52.3315 58.6429 52.2106 58.1077 52.1725 57.9417C52.1173 57.7011 52.0574 57.5037 52.0181 57.3806C51.9387 57.1321 51.8533 56.9099 51.7921 56.7561C51.6642 56.4348 51.5049 56.0717 51.3389 55.7056L40.4101 60.6616ZM40.3315 59.332C40.3315 58.745 40.4502 58.0588 40.7728 57.3665C41.0941 56.6768 41.5346 56.1592 41.9555 55.7999L49.7466 64.9267C51.376 63.5358 52.3315 61.5362 52.3315 59.332H40.3315ZM41.9 55.8478C42.2474 55.5439 42.6932 55.2578 43.2309 55.0554C43.7688 54.853 44.295 54.7734 44.7612 54.7734V66.7734C46.6332 66.7734 48.3993 66.1062 49.8021 64.8787L41.9 55.8478ZM47.855 52.7344C47.855 52.7248 47.8561 52.64 47.8735 52.4615L35.9302 51.2963C35.8851 51.7585 35.855 52.2439 35.855 52.7344H47.855ZM47.8598 52.5882C47.883 52.393 47.9197 52.143 47.9746 51.8318L36.1572 49.7463C36.0715 50.232 35.9988 50.7085 35.9439 51.1696L47.8598 52.5882ZM44.7492 45.4225C44.3297 45.2128 43.7686 44.9715 43.0993 44.8041L40.1888 56.4459C39.7695 56.341 39.4896 56.2091 39.3826 56.1556L44.7492 45.4225ZM43.5414 44.9329C43.0563 44.7712 42.2849 44.5664 41.3394 44.5664V56.5664C40.5656 56.5664 39.9974 56.4007 39.7467 56.3171L43.5414 44.9329ZM41.3394 44.5664C38.4837 44.5664 36.0272 45.7713 34.2074 47.6804L42.8932 55.9603C42.827 56.0297 42.6364 56.2035 42.3055 56.3523C41.9639 56.5058 41.6195 56.5664 41.3394 56.5664V44.5664ZM34.2269 47.66C32.4147 49.5433 31.355 51.9731 31.355 54.7031H43.355C43.355 54.9037 43.3145 55.175 43.1963 55.4602C43.0803 55.74 42.9398 55.9119 42.8737 55.9806L34.2269 47.66ZM31.355 54.7031C31.355 56.2958 31.6099 58.5388 33.0157 60.5304L42.8193 53.6102C43.1673 54.1032 43.2921 54.5207 43.3331 54.693C43.3732 54.8621 43.355 54.8868 43.355 54.7031H31.355ZM33.04 60.5646C34.7386 62.9356 37.285 63.8555 39.605 63.8555V51.8555C39.9249 51.8555 40.4921 51.9123 41.1517 52.2192C41.8433 52.541 42.4046 53.0311 42.795 53.576L33.04 60.5646ZM39.605 63.8555C40.7468 63.8555 41.9014 63.669 43.0265 63.2599L38.9256 51.9823C39.1914 51.8857 39.4319 51.8555 39.605 51.8555V63.8555ZM43.0828 63.2391C44.1663 62.8328 45.1413 62.2558 46.0008 61.5542L38.4123 52.2583C38.5061 52.1817 38.6608 52.0813 38.8693 52.0031L43.0828 63.2391ZM48.1594 56.1559C47.9314 54.3465 47.855 53.2632 47.855 52.7344H35.855C35.855 54.0493 36.013 55.7473 36.2536 57.6566L48.1594 56.1559ZM59.5898 44.707L54.107 47.1439L54.1153 47.1625L54.1237 47.1812L59.5898 44.707ZM59.0625 43.9951L56.5252 49.4322L56.5626 49.4497L56.6003 49.4666L59.0625 43.9951ZM54.1846 46.4868L58.7719 50.3542L58.7746 50.3509L54.1846 46.4868ZM57.0586 56.0581L59.7837 61.4035L59.8216 61.3842L59.8591 61.3644L57.0586 56.0581ZM59.0625 54.7661L55.7343 49.7738L55.7096 49.7903L55.6851 49.8069L59.0625 54.7661ZM61.9629 54.6606L66.3102 50.5254L66.303 50.5178L61.9629 54.6606ZM61.7915 57.2578L65.6604 61.8438L65.6672 61.8381L61.7915 57.2578ZM49.3989 58.1543L45.02 62.2561L45.0291 62.2659L45.0383 62.2756L49.3989 58.1543ZM51.3105 44.2324L46.7191 40.37L46.7153 40.3745L51.3105 44.2324ZM59.0625 40.3696L58.5501 46.3477L58.5572 46.3483L58.5642 46.3489L59.0625 40.3696ZM59.8931 40.4883L58.5915 46.3454L61.7631 47.0502L64.0867 44.7794L59.8931 40.4883ZM62.9517 41.4639L68.8324 40.2737L68.8309 40.266L68.8293 40.2582L62.9517 41.4639ZM62.7935 45.2476L57.895 41.7828L57.8908 41.7887L57.8866 41.7946L62.7935 45.2476ZM61.3433 39.9595C62.0654 39.9595 62.9707 40.1722 63.7991 40.764C64.5735 41.3171 64.9272 41.9483 65.056 42.2329L54.1237 47.1812C54.6305 48.3007 55.4653 49.5581 56.8242 50.5288C58.2371 51.538 59.8301 51.9595 61.3433 51.9595V39.9595ZM65.0727 42.2702C64.8809 41.8385 64.5869 41.2543 64.1475 40.6611C63.7464 40.1195 62.9179 39.1505 61.5247 38.5236L56.6003 49.4666C55.3829 48.9188 54.7302 48.108 54.5048 47.8038C54.2412 47.4479 54.1231 47.18 54.107 47.1439L65.0727 42.2702ZM61.5998 38.558C60.4793 38.0351 59.3987 37.964 59.2328 37.9493C58.81 37.9119 58.3861 37.9028 58.021 37.9028V49.9028C58.2184 49.9028 58.2493 49.9092 58.1737 49.9025C58.1356 49.8991 57.9932 49.8859 57.7882 49.8464C57.6819 49.8259 57.524 49.7918 57.3321 49.7362C57.1487 49.683 56.8625 49.5896 56.5252 49.4322L61.5998 38.558ZM58.021 37.9028C55.889 37.9028 54.134 38.7274 52.8795 39.5724C51.6185 40.4217 50.5296 41.512 49.5945 42.6227L58.7746 50.3509C59.0192 50.0604 59.2167 49.854 59.3654 49.7131C59.5162 49.5704 59.5896 49.5209 59.5832 49.5253C59.5781 49.5287 59.448 49.6168 59.1954 49.7079C58.934 49.8023 58.5317 49.9028 58.021 49.9028V37.9028ZM49.5973 42.6194C47.0942 45.5884 45.1392 49.1758 45.1392 53.25H57.1392C57.1392 53.123 57.2143 52.2017 58.7719 50.3542L49.5973 42.6194ZM45.1392 53.25C45.1392 55.6963 46.0156 57.9932 47.7208 59.8152L56.4823 51.6154C56.6486 51.7932 56.8346 52.0587 56.969 52.403C57.1025 52.7451 57.1392 53.0469 57.1392 53.25H45.1392ZM47.7208 59.8152C49.4364 61.6483 51.7655 62.7437 54.4087 62.7437V50.7437C54.7467 50.7437 55.1689 50.8132 55.6022 51.0063C56.0292 51.1966 56.3188 51.4407 56.4823 51.6154L47.7208 59.8152ZM54.4087 62.7437C56.3643 62.7437 58.1756 62.2234 59.7837 61.4035L54.3335 50.7127C54.2352 50.7628 54.1988 50.7693 54.221 50.7635C54.2319 50.7607 54.2547 50.7555 54.2884 50.7511C54.3221 50.7467 54.3628 50.7437 54.4087 50.7437V62.7437ZM59.8591 61.3644C60.5329 61.0088 61.4957 60.3683 62.4399 59.7253L55.6851 49.8069C55.1971 50.1393 54.8209 50.3897 54.5456 50.5671C54.4084 50.6556 54.3112 50.7163 54.2479 50.7547C54.174 50.7996 54.1871 50.7892 54.258 50.7518L59.8591 61.3644ZM62.3907 59.7584C62.5626 59.6438 62.5494 59.6701 62.3851 59.7425C62.2958 59.7818 62.1115 59.8572 61.8473 59.9266C61.5896 59.9943 61.1645 60.0806 60.6182 60.0806V48.0806C59.2536 48.0806 58.156 48.4927 57.546 48.7614C56.8631 49.0624 56.248 49.4314 55.7343 49.7738L62.3907 59.7584ZM60.6182 60.0806C60.1308 60.0806 59.5583 59.9872 58.9733 59.7349C58.3901 59.4833 57.9411 59.137 57.6228 58.8035L66.303 50.5178C64.8194 48.9635 62.8106 48.0806 60.6182 48.0806V60.0806ZM57.6155 58.7959C57.3361 58.5022 57.0329 58.0857 56.8066 57.54C56.5773 56.9875 56.4771 56.4227 56.4771 55.8999H68.4771C68.4771 53.7839 67.6351 51.9181 66.3102 50.5254L57.6155 58.7959ZM56.4771 55.8999C56.4771 55.2419 56.6306 54.5559 56.9495 53.9242C57.2574 53.3145 57.6394 52.9115 57.9159 52.6775L65.6672 61.8381C67.2396 60.5076 68.4771 58.466 68.4771 55.8999H56.4771ZM57.9226 52.6718C56.2962 54.0438 55.1576 54.3164 54.4087 54.3164V66.3164C58.6695 66.3164 62.4528 64.5499 65.6604 61.8438L57.9226 52.6718ZM54.4087 54.3164C54.1656 54.3164 54.0714 54.276 54.0506 54.267C54.0294 54.2579 53.9318 54.2153 53.7595 54.033L45.0383 62.2756C47.5302 64.9122 50.7757 66.3164 54.4087 66.3164V54.3164ZM53.7779 54.0525C53.5051 53.7613 53.4478 53.5878 53.4478 53.25H41.4478C41.4478 56.674 42.6912 59.7699 45.02 62.2561L53.7779 54.0525ZM53.4478 53.25C53.4478 52.1532 53.911 50.4664 55.9058 48.0903L46.7153 40.3745C43.5597 44.1332 41.4478 48.4581 41.4478 53.25H53.4478ZM55.902 48.0948C56.6831 47.1663 57.2792 46.7055 57.6458 46.4924C57.8201 46.391 57.9288 46.3534 57.9749 46.3401C57.9987 46.3333 58.0119 46.3312 58.0161 46.3306C58.0185 46.3302 58.0197 46.3301 58.0201 46.3301C58.0204 46.3301 58.0206 46.3301 58.021 46.3301V34.3301C53.2413 34.3301 49.4807 37.087 46.7191 40.37L55.902 48.0948ZM58.021 46.3301C58.2772 46.3301 58.449 46.339 58.5501 46.3477L59.5749 34.3915C59.0608 34.3475 58.5382 34.3301 58.021 34.3301V46.3301ZM58.5642 46.3489C58.5919 46.3512 58.6137 46.3534 58.6298 46.3552C58.646 46.357 58.6555 46.3583 58.6589 46.3588C58.6624 46.3593 58.6584 46.3588 58.6477 46.3568C58.637 46.3549 58.618 46.3513 58.5915 46.3454L61.1946 34.6312C60.6268 34.505 60.0706 34.4328 59.5608 34.3904L58.5642 46.3489ZM64.0867 44.7794C63.7651 45.0937 63.3305 45.4029 62.7879 45.6231C62.2462 45.8428 61.7258 45.9214 61.2905 45.9214V33.9214C59.1918 33.9214 57.2169 34.7142 55.6995 36.1972L64.0867 44.7794ZM61.2905 45.9214C60.5242 45.9214 59.3302 45.6646 58.2955 44.7038C57.3614 43.8364 57.1247 42.9162 57.074 42.6695L68.8293 40.2582C68.5677 38.9832 67.9486 37.2917 66.4609 35.9102C64.8725 34.4353 62.9534 33.9214 61.2905 33.9214V45.9214ZM57.0709 42.654C57.1212 42.9025 57.1758 43.3489 57.1758 44.0479H69.1758C69.1758 42.778 69.081 41.5018 68.8324 40.2737L57.0709 42.654ZM57.1758 44.0479C57.1758 43.2404 57.4366 42.4309 57.895 41.7828L67.6919 48.7123C68.6601 47.3436 69.1758 45.7342 69.1758 44.0479H57.1758ZM57.8866 41.7946C58.2532 41.2736 58.8038 40.7551 59.5364 40.3955C60.2498 40.0453 60.9027 39.9595 61.3433 39.9595V51.9595C63.722 51.9595 66.1287 50.9339 67.7003 48.7005L57.8866 41.7946ZM77.5703 59.4019L72.2875 62.2465L72.2897 62.2506L77.5703 59.4019ZM75.0581 55.7275L70.3444 59.4399L70.3508 59.4479L75.0581 55.7275ZM72.3066 52.2241L77.1066 48.6241L73.5355 43.8626L68.7454 47.3953L72.3066 52.2241ZM70.0508 53.7622L66.9784 48.6085L64.2908 50.2108L64.0662 53.3317L70.0508 53.7622ZM65.2998 53.6938L59.317 53.2395L59.3157 53.257L59.3145 53.2745L65.2998 53.6938ZM65.5732 43.9868L59.5754 43.8264L59.575 43.8421L59.5746 43.8578L65.5732 43.9868ZM65.5732 36.6211L59.587 37.0269L59.5907 37.0817L59.5954 37.1364L65.5732 36.6211ZM66.1714 33.2544L70.3009 37.6072L70.3299 37.5797L70.3586 37.5518L66.1714 33.2544ZM69.5552 33.2544L65.368 37.5518L65.3966 37.5797L65.4256 37.6072L69.5552 33.2544ZM70.29 43.252L76.2856 43.4826L76.286 43.4727L70.29 43.252ZM70.2046 48.0029L64.2048 48.0521L64.3039 60.1388L73.8713 52.7522L70.2046 48.0029ZM77.2798 41.4746L81.5148 45.7249L81.5224 45.7173L77.2798 41.4746ZM80.6807 41.4233L76.5402 45.7658L80.6807 41.4233ZM80.749 44.5679L76.3047 40.537L76.2902 40.553L76.2758 40.5691L80.749 44.5679ZM75.9468 49.2847L71.9743 44.7881L67.7549 48.5157L71.2069 52.9634L75.9468 49.2847ZM79.5015 53.8647L84.2986 50.2609L84.2703 50.2232L84.2414 50.186L79.5015 53.8647ZM81.3301 60.0342L77.4084 55.4932L77.3791 55.5185L77.3502 55.5441L81.3301 60.0342ZM79.6211 54.7007C80.1759 54.7007 80.9195 54.8484 81.6437 55.3071C82.3401 55.7481 82.7009 56.2751 82.8509 56.5531L72.2897 62.2506C72.9068 63.3945 73.843 64.5709 75.223 65.4449C76.6308 66.3365 78.1663 66.7007 79.6211 66.7007V54.7007ZM82.8531 56.5573C82.0664 55.0962 80.9981 53.5669 79.7655 52.0072L70.3508 59.4479C71.3512 60.7137 71.9577 61.6339 72.2875 62.2465L82.8531 56.5573ZM79.7718 52.0152C78.9064 50.9164 78.2461 50.0773 77.7901 49.4966C77.2981 48.8701 77.1056 48.6228 77.1066 48.6241L67.5066 55.8241C67.6655 56.0359 68.658 57.2986 70.3444 59.4399L79.7718 52.0152ZM68.7454 47.3953C67.9055 48.0147 67.3308 48.3985 66.9784 48.6085L73.1232 58.9159C73.9557 58.4196 74.8849 57.7779 75.8679 57.0529L68.7454 47.3953ZM64.0662 53.3317C63.943 55.045 63.8799 56.7045 63.8799 58.3081H75.8799C75.8799 57.0179 75.9307 55.6467 76.0353 54.1927L64.0662 53.3317ZM63.8799 58.3081C63.8799 57.9566 63.9413 57.4802 64.1545 56.9556C64.3708 56.4231 64.6862 55.9826 65.0262 55.6514L73.4006 64.2461C75.0854 62.6044 75.8799 60.4698 75.8799 58.3081H63.8799ZM65.0262 55.6514C65.3714 55.315 65.8078 55.0259 66.3071 54.8343C66.7956 54.6468 67.2242 54.5981 67.5215 54.5981V66.5981C69.5951 66.5981 71.7169 65.8866 73.4006 64.2461L65.0262 55.6514ZM67.5215 54.5981C67.9459 54.5981 69.2621 54.7745 70.3101 56.0231C71.189 57.0704 71.1118 57.9906 71.1118 57.7271H59.1118C59.1118 59.3776 59.4362 61.7333 61.1184 63.7376C62.9696 65.9433 65.4906 66.5981 67.5215 66.5981V54.5981ZM71.1118 57.7271C71.1118 57.0444 71.162 55.8704 71.2851 54.1132L59.3145 53.2745C59.1869 55.0948 59.1118 56.6096 59.1118 57.7271H71.1118ZM71.2826 54.1482C71.4218 52.3151 71.5049 50.7798 71.5049 49.6436H59.5049C59.5049 50.3074 59.4513 51.4723 59.317 53.2395L71.2826 54.1482ZM71.5049 49.6436C71.5049 48.0445 71.527 46.2033 71.5719 44.1158L59.5746 43.8578C59.5284 46.0086 59.5049 47.9385 59.5049 49.6436H71.5049ZM71.5711 44.1472C71.6291 41.9784 71.6587 40.0432 71.6587 38.3472H59.6587C59.6587 39.9096 59.6313 41.7341 59.5754 43.8264L71.5711 44.1472ZM71.6587 38.3472C71.6587 37.6373 71.618 36.8825 71.5511 36.1058L59.5954 37.1364C59.6424 37.6813 59.6587 38.0772 59.6587 38.3472H71.6587ZM71.5595 36.2152C71.52 35.632 71.5049 35.193 71.5049 34.8779H59.5049C59.5049 35.5427 59.5354 36.2657 59.587 37.0269L71.5595 36.2152ZM71.5049 34.8779C71.5049 35.2282 71.4438 35.7149 71.222 36.2551C70.9961 36.8052 70.6641 37.2627 70.3009 37.6072L62.0418 28.9016C60.3023 30.552 59.5049 32.7157 59.5049 34.8779H71.5049ZM70.3586 37.5518C70.0134 37.8881 69.577 38.1772 69.0777 38.3689C68.5892 38.5564 68.1606 38.605 67.8633 38.605V26.605C65.7897 26.605 63.6679 27.3165 61.9842 28.957L70.3586 37.5518ZM67.8633 38.605C67.566 38.605 67.1374 38.5564 66.6489 38.3689C66.1496 38.1772 65.7132 37.8881 65.368 37.5518L73.7424 28.957C72.0587 27.3165 69.9369 26.605 67.8633 26.605V38.605ZM65.4256 37.6072C65.0625 37.2627 64.7304 36.8052 64.5046 36.2551C64.2828 35.7149 64.2217 35.2282 64.2217 34.8779H76.2217C76.2217 32.7157 75.4243 30.552 73.6847 28.9016L65.4256 37.6072ZM64.2217 34.8779C64.2217 35.5933 64.2617 36.3599 64.3279 37.1535L76.2864 36.157C76.2386 35.5835 76.2217 35.1652 76.2217 34.8779H64.2217ZM64.3279 37.1535C64.3756 37.727 64.3926 38.1454 64.3926 38.4326H76.3926C76.3926 37.7172 76.3525 36.9507 76.2864 36.157L64.3279 37.1535ZM64.3926 38.4326C64.3926 39.6936 64.3607 41.2229 64.2941 43.0312L76.286 43.4727C76.3561 41.5668 76.3926 39.8832 76.3926 38.4326H64.3926ZM64.2945 43.0214C64.2235 44.8676 64.1925 46.5474 64.2048 48.0521L76.2044 47.9538C76.1939 46.6785 76.2199 45.191 76.2856 43.4826L64.2945 43.0214ZM73.8713 52.7522C75.7465 51.3044 78.3363 48.892 81.5148 45.7249L73.0448 37.2243C69.8887 40.3691 67.7616 42.3089 66.5379 43.2537L73.8713 52.7522ZM81.5224 45.7173C81.3195 45.9201 80.9835 46.1896 80.4994 46.4025C80.0033 46.6208 79.4803 46.7227 78.9888 46.7227V34.7227C76.5756 34.7227 74.5266 35.7425 73.0371 37.232L81.5224 45.7173ZM78.9888 46.7227C78.5562 46.7227 78.0732 46.6395 77.5945 46.4412C77.1222 46.2456 76.7726 45.9873 76.5402 45.7658L84.8211 37.0809C83.2902 35.6212 81.2692 34.7227 78.9888 34.7227V46.7227ZM76.5402 45.7658C76.3046 45.5411 76.0022 45.1763 75.7657 44.6537C75.5236 44.119 75.4155 43.5613 75.4155 43.0469H87.4155C87.4155 40.6172 86.3668 38.5547 84.8211 37.0809L76.5402 45.7658ZM75.4155 43.0469C75.4155 41.72 76.0201 40.8508 76.3047 40.537L85.1933 48.5988C86.3667 47.3051 87.4155 45.4219 87.4155 43.0469H75.4155ZM76.2758 40.5691C75.119 41.8631 73.693 43.2697 71.9743 44.7881L79.9192 53.7813C81.9147 52.0184 83.6902 50.2804 85.2222 48.5667L76.2758 40.5691ZM71.2069 52.9634L74.7615 57.5435L84.2414 50.186L80.6867 45.6059L71.2069 52.9634ZM74.7043 57.4686C75.4922 58.5173 75.963 59.2351 76.2095 59.6726C76.3323 59.8904 76.3398 59.9346 76.3039 59.839C76.2837 59.7851 76.235 59.648 76.1885 59.4419C76.1436 59.2427 76.082 58.8969 76.082 58.4448H88.082C88.082 56.3492 87.1027 54.5602 86.6643 53.782C86.0505 52.6928 85.2311 51.5022 84.2986 50.2609L74.7043 57.4686ZM76.082 58.4448C76.082 57.9333 76.1903 57.3381 76.4704 56.7461C76.7464 56.1627 77.1086 55.7521 77.4084 55.4932L85.2518 64.5751C86.9871 63.0764 88.082 60.9253 88.082 58.4448H76.082ZM77.3502 55.5441C77.5792 55.3411 77.9112 55.114 78.3468 54.9441C78.7868 54.7725 79.2271 54.7007 79.6211 54.7007V66.7007C81.8038 66.7007 83.771 65.8883 85.3099 64.5243L77.3502 55.5441ZM90.4482 60.8188L91.6843 54.9475L84.4663 53.428L84.4483 60.8041L90.4482 60.8188ZM90.4272 69.3853L84.4273 69.3705L84.4272 69.3779V69.3853H90.4272ZM84.6743 61.5537L78.6745 61.5041L78.6744 61.5169L84.6743 61.5537ZM84.6743 53.2603L90.6738 53.1818L90.6737 53.1769L84.6743 53.2603ZM84.3804 45.4497L78.3949 45.8673L78.3952 45.8717L84.3804 45.4497ZM84.8423 38.332L79.7928 35.0913L79.7758 35.1177L79.7591 35.1443L84.8423 38.332ZM90.0493 39.6338L96.0195 40.2308L96.0493 39.933V39.6338H90.0493ZM90.0283 39.8438L84.0581 39.2467L82.9046 50.7819L92.9884 45.0628L90.0283 39.8438ZM92.8418 38.668L94.3985 44.4625L94.4275 44.4547L94.4564 44.4466L92.8418 38.668ZM102.752 42.3633L108.037 39.523L108.03 39.5103L108.023 39.4977L102.752 42.3633ZM101.786 57.9844L97.2551 54.0512L97.2472 54.0604L101.786 57.9844ZM93.0098 44.5049L95.4544 49.9843L95.4894 49.9687L95.5241 49.9526L93.0098 44.5049ZM90.2593 46.3525L86.2605 41.8793L84.101 43.8098L84.2694 46.7015L90.2593 46.3525ZM90.5112 55.0239H84.5112V59.3794L88.6524 60.7287L90.5112 55.0239ZM97.5659 54.1001L92.7834 50.477L92.7786 50.4833L92.7738 50.4896L97.5659 54.1001ZM98.3638 46.4365L104.21 45.0874L104.206 45.0681L104.201 45.049L98.3638 46.4365ZM94.2485 55.2388C93.5093 55.2388 92.6587 55.1527 91.6843 54.9475L89.2122 66.6901C90.8973 67.0449 92.5802 67.2388 94.2485 67.2388V55.2388ZM84.4483 60.8041L84.4273 69.3705L96.4272 69.4L96.4482 60.8336L84.4483 60.8041ZM84.4272 69.3853C84.4272 69.1093 84.476 68.7019 84.6637 68.2398C84.8547 67.7698 85.132 67.3853 85.4212 67.1035L93.7956 75.6983C95.582 73.9576 96.4272 71.698 96.4272 69.3853H84.4272ZM85.4212 67.1035C85.7156 66.8167 86.0944 66.5646 86.5292 66.3977C86.9533 66.235 87.3106 66.1987 87.5298 66.1987V78.1987C89.7596 78.1987 92.0103 77.4377 93.7956 75.6983L85.4212 67.1035ZM87.5298 66.1987C87.7489 66.1987 88.1063 66.235 88.5303 66.3977C88.9652 66.5646 89.344 66.8167 89.6384 67.1035L81.264 75.6983C83.0492 77.4377 85.2999 78.1987 87.5298 78.1987V66.1987ZM89.6384 67.1035C89.9276 67.3853 90.2049 67.7698 90.3958 68.2398C90.5836 68.7019 90.6323 69.1093 90.6323 69.3853H78.6323C78.6323 71.698 79.4775 73.9576 81.264 75.6983L89.6384 67.1035ZM90.6323 69.3853C90.6323 68.7511 90.6461 66.1666 90.6742 61.5905L78.6744 61.5169C78.6465 66.0671 78.6323 68.7036 78.6323 69.3853H90.6323ZM90.6741 61.6033C90.7023 58.1946 90.7026 55.3832 90.6738 53.1818L78.6748 53.3387C78.702 55.4206 78.7023 58.138 78.6745 61.5041L90.6741 61.6033ZM90.6737 53.1769C90.6307 50.0796 90.5298 47.3573 90.3655 45.0277L78.3952 45.8717C78.5389 47.9094 78.6339 50.394 78.6749 53.3436L90.6737 53.1769ZM90.3658 45.0321C90.2607 43.5259 90.1809 42.4127 90.1268 41.703C90.1006 41.3588 90.0776 41.0705 90.0592 40.8737C90.0588 40.869 90.0348 40.5822 89.9869 40.2983C89.9771 40.2399 89.9585 40.1346 89.93 40.0046C89.9124 39.9243 89.8439 39.6095 89.7029 39.2241C89.6424 39.0588 89.4677 38.5939 89.1281 38.0609C89.0291 37.9054 87.8123 35.8439 85.0921 35.3724C81.4435 34.74 79.4467 37.3853 79.0413 38.0069C78.5244 38.7995 78.3284 39.5221 78.2781 39.7066C78.1407 40.2102 78.103 40.6207 78.0955 40.6957C78.0804 40.8474 78.0742 40.969 78.0715 41.0325C78.0658 41.1631 78.0654 41.2681 78.0654 41.3135H90.0654C90.0654 41.3432 90.0653 41.4355 90.06 41.5568C90.0574 41.6156 90.0515 41.7332 90.0367 41.8819C90.0296 41.9538 89.9922 42.362 89.8552 42.864C89.8051 43.0479 89.6094 43.7698 89.0927 44.5621C88.6875 45.1833 86.6909 47.8285 83.0426 47.1961C80.3227 46.7247 79.1061 44.6634 79.0074 44.5084C78.6681 43.9758 78.4936 43.5116 78.4335 43.3471C78.2931 42.9634 78.2252 42.6511 78.2084 42.5741C78.1806 42.4473 78.1628 42.3461 78.1538 42.2926C78.1125 42.0476 78.0983 41.8506 78.111 41.9869C78.1189 42.0717 78.1352 42.2689 78.1615 42.6141C78.2124 43.2832 78.29 44.3641 78.3949 45.8673L90.3658 45.0321ZM90.0654 41.3135C90.0654 41.1775 90.0806 41.1529 90.0658 41.2096C90.0493 41.2728 90.0085 41.3874 89.9254 41.5198L79.7591 35.1443C78.5357 37.0951 78.0654 39.2427 78.0654 41.3135H90.0654ZM89.8918 41.5728C89.7727 41.7584 89.4694 42.1458 88.9035 42.4726C88.3162 42.8118 87.723 42.9253 87.2778 42.9253V30.9253C84.0017 30.9253 81.3792 32.6195 79.7928 35.0913L89.8918 41.5728ZM87.2778 42.9253C86.9798 42.9253 86.5672 42.8721 86.1104 42.6874C85.6486 42.5008 85.2775 42.2344 85.0088 41.9658L93.4941 33.4805C91.7853 31.7717 89.5784 30.9253 87.2778 30.9253V42.9253ZM85.0088 41.9658C84.7717 41.7287 84.5077 41.3776 84.3132 40.9117C84.118 40.4443 84.0493 39.9965 84.0493 39.6338H96.0493C96.0493 37.2758 95.1336 35.12 93.4941 33.4805L85.0088 41.9658ZM84.0791 39.0368L84.0581 39.2467L95.9985 40.4408L96.0195 40.2308L84.0791 39.0368ZM92.9884 45.0628C93.5326 44.7541 94.0014 44.5692 94.3985 44.4625L91.2851 32.8734C89.8065 33.2707 88.3997 33.8696 87.0683 34.6247L92.9884 45.0628ZM94.4564 44.4466C94.9028 44.3219 95.3118 44.269 95.6973 44.269V32.269C94.1791 32.269 92.6844 32.4821 91.2272 32.8893L94.4564 44.4466ZM95.6973 44.269C96.445 44.269 96.7586 44.4209 96.8638 44.482C96.9576 44.5365 97.1878 44.6905 97.4805 45.2288L108.023 39.4977C106.832 37.3066 105.145 35.4135 102.887 34.1032C100.641 32.7995 98.169 32.269 95.6973 32.269V44.269ZM97.4668 45.2036C97.9527 46.1077 98.4106 47.7023 98.4106 50.3628H110.411C110.411 46.4725 109.763 42.7341 108.037 39.523L97.4668 45.2036ZM98.4106 50.3628C98.4106 52.211 97.918 53.2876 97.2551 54.0512L106.317 61.9175C109.154 58.6499 110.411 54.6454 110.411 50.3628H98.4106ZM97.2472 54.0604C96.6314 54.7726 95.8478 55.2388 94.2485 55.2388V67.2388C98.9481 67.2388 103.19 65.5353 106.325 61.9084L97.2472 54.0604ZM95.6973 37.875C93.8361 37.875 92.086 38.323 90.4954 39.0571L95.5241 49.9526C95.6438 49.8974 95.7124 49.879 95.7332 49.8742C95.7518 49.8698 95.7369 49.875 95.6973 49.875V37.875ZM90.5651 39.0255C88.9697 39.7373 87.5392 40.7362 86.2605 41.8793L94.2581 50.8258C94.827 50.3172 95.2302 50.0843 95.4544 49.9843L90.5651 39.0255ZM84.2694 46.7015C84.4306 49.4684 84.5112 52.2425 84.5112 55.0239H96.5112C96.5112 52.0104 96.4239 49.0036 96.2491 46.0036L84.2694 46.7015ZM88.6524 60.7287C90.4671 61.32 92.3394 61.6328 94.2485 61.6328V49.6328C93.6661 49.6328 93.0469 49.5397 92.3701 49.3191L88.6524 60.7287ZM94.2485 61.6328C97.3004 61.6328 100.299 60.4431 102.358 57.7106L92.7738 50.4896C92.9534 50.2512 93.2516 49.9836 93.6426 49.8029C94.0103 49.633 94.2581 49.6328 94.2485 49.6328V61.6328ZM102.348 57.7232C104.075 55.4437 104.616 52.7823 104.616 50.3628H92.6157C92.6157 50.7096 92.5761 50.8531 92.5768 50.8503C92.5781 50.8459 92.5905 50.8032 92.6243 50.7335C92.6585 50.6627 92.7101 50.5737 92.7834 50.477L102.348 57.7232ZM104.616 50.3628C104.616 48.5019 104.55 46.5607 104.21 45.0874L92.5174 47.7857C92.4934 47.6815 92.5308 47.8152 92.565 48.3482C92.5961 48.8326 92.6157 49.4956 92.6157 50.3628H104.616ZM104.201 45.049C103.84 43.5277 103.107 41.6844 101.549 40.1884C99.8572 38.5629 97.7422 37.875 95.6973 37.875V49.875C95.413 49.875 94.9957 49.8294 94.5155 49.6481C94.0238 49.4623 93.5868 49.1792 93.2361 48.8423C92.5676 48.2002 92.4821 47.6377 92.5264 47.8241L104.201 45.049ZM126.213 59.1367L130.456 54.8941L127.454 51.8923L123.625 53.7239L126.213 59.1367ZM122.1 60.8125L120.301 55.0885L120.264 55.1002L120.227 55.1123L122.1 60.8125ZM109.887 58.1211L105.494 62.2077L105.503 62.2168L105.511 62.2259L109.887 58.1211ZM111.36 37.8594L115.517 42.1862L115.523 42.1802L115.529 42.1741L111.36 37.8594ZM127.762 34.8633L125.383 40.3713L125.39 40.3744L127.762 34.8633ZM131.012 40.2969L126.445 36.4061L125.533 37.4769L125.191 38.8417L131.012 40.2969ZM130.606 42.8613L124.635 42.274L124.63 42.3185L124.627 42.3631L130.606 42.8613ZM131.165 53.4238L125.452 55.2599L125.462 55.2906L125.472 55.3212L131.165 53.4238ZM132.333 56.0645L126.866 58.5386L126.868 58.5425L132.333 56.0645ZM132.282 60.7871L128.386 56.2237L128.358 56.2475L128.331 56.2717L132.282 60.7871ZM123.725 42.4043L117.767 41.695L117.76 41.7583L117.753 41.8217L123.725 42.4043ZM124.081 40.043L129.989 41.0857L130.767 36.678L126.764 34.6764L124.081 40.043ZM123.167 39.6875L121.269 45.3796L121.488 45.4525L121.711 45.5084L123.167 39.6875ZM116.463 42.2773L120.787 46.4376L120.797 46.4275L120.806 46.4173L116.463 42.2773ZM115.092 53.6523L110.19 57.1124L110.203 57.1296L110.215 57.1467L115.092 53.6523ZM121.719 54.8457L123.77 60.4845L123.798 60.4742L123.826 60.4637L121.719 54.8457ZM124.385 53.2969L128.18 57.9448L130.754 55.8434L130.338 52.5465L124.385 53.2969ZM129.92 55.6758C130.363 55.6758 130.727 55.7353 130.99 55.7978C131.254 55.8603 131.452 55.9338 131.575 55.9855C131.806 56.0827 131.888 56.151 131.8 56.0908C131.724 56.0388 131.569 55.9233 131.328 55.7143C131.091 55.5086 130.801 55.239 130.456 54.8941L121.971 63.3794C122.944 64.3521 123.971 65.2732 125.019 65.9912C125.857 66.565 127.634 67.6758 129.92 67.6758V55.6758ZM123.625 53.7239C122.232 54.3898 121.134 54.8266 120.301 55.0885L123.899 66.5365C125.436 66.0536 127.08 65.3733 128.802 64.5495L123.625 53.7239ZM120.227 55.1123C119.826 55.2441 119.526 55.3192 119.317 55.3595C119.105 55.4006 119.034 55.3965 119.079 55.3965V67.3965C120.779 67.3965 122.456 67.011 123.973 66.5127L120.227 55.1123ZM119.079 55.3965C116.035 55.3965 114.812 54.6013 114.263 54.0163L105.511 62.2259C109.059 66.0081 113.964 67.3965 119.079 67.3965V55.3965ZM114.28 54.0345C113.67 53.3787 112.84 51.8417 112.84 48.3203H100.84C100.84 53.4994 102.042 58.4963 105.494 62.2077L114.28 54.0345ZM112.84 48.3203C112.84 45.9179 113.649 43.9803 115.517 42.1862L107.203 33.5325C103.045 37.5275 100.84 42.5638 100.84 48.3203H112.84ZM115.529 42.1741C117.421 40.346 119.531 39.4922 122.176 39.4922V27.4922C116.426 27.4922 111.325 29.5498 107.191 33.5446L115.529 42.1741ZM122.176 39.4922C122.692 39.4922 123.718 39.652 125.383 40.3713L130.142 29.3553C127.575 28.2465 124.877 27.4922 122.176 27.4922V39.4922ZM125.39 40.3744C125.816 40.5578 126.101 40.7113 126.277 40.8205C126.457 40.932 126.47 40.9646 126.395 40.8896C126.316 40.8106 126.109 40.5816 125.921 40.1798C125.723 39.7559 125.596 39.2438 125.596 38.6973H137.596C137.596 33.2111 132.841 30.5173 130.135 29.3522L125.39 40.3744ZM125.596 38.6973C125.596 38.3519 125.654 37.9363 125.814 37.4966C125.975 37.0555 126.204 36.6887 126.445 36.4061L135.58 44.1877C136.909 42.6274 137.596 40.7092 137.596 38.6973H125.596ZM125.191 38.8417C124.925 39.9051 124.753 41.0751 124.635 42.274L136.577 43.4487C136.662 42.5825 136.76 42.0428 136.833 41.7521L125.191 38.8417ZM124.627 42.3631C124.524 43.5897 124.479 44.9567 124.479 46.4414H136.479C136.479 45.184 136.518 44.1642 136.585 43.3596L124.627 42.3631ZM124.479 46.4414C124.479 49.7456 124.688 52.8823 125.452 55.2599L136.877 51.5878C136.727 51.1217 136.479 49.6034 136.479 46.4414H124.479ZM125.472 55.3212C125.613 55.7423 125.885 56.348 126.007 56.6253C126.213 57.089 126.5 57.7295 126.866 58.5386L137.799 53.5903C137.437 52.7914 137.166 52.1877 136.982 51.7712C136.889 51.5611 136.825 51.4148 136.786 51.322C136.765 51.2746 136.759 51.2578 136.761 51.2625C136.762 51.2651 136.77 51.285 136.782 51.3168C136.791 51.3399 136.821 51.4184 136.857 51.5265L125.472 55.3212ZM126.868 58.5425C127.023 58.8838 127.153 59.1769 127.26 59.4245C127.369 59.6745 127.447 59.8625 127.5 59.9969C127.527 60.0631 127.543 60.107 127.553 60.1318C127.563 60.159 127.558 60.1488 127.546 60.1099C127.539 60.0892 127.528 60.0531 127.514 60.0042C127.501 59.9566 127.481 59.8829 127.459 59.7888C127.438 59.6985 127.409 59.5567 127.382 59.3777C127.369 59.286 127.355 59.1724 127.343 59.0409C127.332 58.911 127.323 58.7455 127.323 58.5527H139.323C139.323 57.4392 138.992 56.5061 138.976 56.456C138.874 56.1381 138.756 55.8253 138.65 55.5598C138.433 55.0152 138.141 54.3445 137.797 53.5864L126.868 58.5425ZM127.323 58.5527C127.323 58.2073 127.395 57.7421 127.624 57.2503C127.852 56.7611 128.152 56.4235 128.386 56.2237L136.177 65.3505C138.18 63.6406 139.323 61.24 139.323 58.5527H127.323ZM128.331 56.2717C128.496 56.1272 128.744 55.9607 129.07 55.8381C129.396 55.7154 129.696 55.6758 129.92 55.6758V67.6758C132.275 67.6758 134.465 66.849 136.233 65.3026L128.331 56.2717ZM129.624 44.2578C129.624 43.9566 129.643 43.5391 129.697 42.9869L117.753 41.8217C117.672 42.6575 117.624 43.4757 117.624 44.2578H129.624ZM129.683 43.1136C129.752 42.5356 129.852 41.8618 129.989 41.0857L118.172 39.0003C118.004 39.9507 117.868 40.8511 117.767 41.695L129.683 43.1136ZM126.764 34.6764C126.162 34.3755 125.437 34.0704 124.622 33.8666L121.711 45.5084C121.565 45.4718 121.467 45.4362 121.423 45.4192C121.378 45.4017 121.369 45.3953 121.397 45.4095L126.764 34.6764ZM125.064 33.9954C124.442 33.7881 123.552 33.5605 122.506 33.5605V45.5605C122.152 45.5605 121.869 45.521 121.678 45.4843C121.485 45.4472 121.346 45.4052 121.269 45.3796L125.064 33.9954ZM122.506 33.5605C118.411 33.5605 114.87 35.2531 112.12 38.1374L120.806 46.4173C121.51 45.6792 121.997 45.5605 122.506 45.5605V33.5605ZM112.14 38.1171C109.398 40.9664 107.874 44.5173 107.874 48.5234H119.874C119.874 47.79 120.076 47.1768 120.787 46.4376L112.14 38.1171ZM107.874 48.5234C107.874 51.3375 108.347 54.5011 110.19 57.1124L119.994 50.1922C120.123 50.3753 120.084 50.4078 120.016 50.1197C119.946 49.8285 119.874 49.3178 119.874 48.5234H107.874ZM110.215 57.1467C112.351 60.1283 115.554 61.3535 118.749 61.3535V49.3535C118.631 49.3535 118.815 49.334 119.147 49.4882C119.51 49.6573 119.798 49.9185 119.97 50.158L110.215 57.1467ZM118.749 61.3535C120.455 61.3535 122.143 61.0759 123.77 60.4845L119.669 49.2069C119.433 49.2926 119.141 49.3535 118.749 49.3535V61.3535ZM123.826 60.4637C125.42 59.866 126.873 59.011 128.18 57.9448L120.591 48.6489C120.238 48.9369 119.914 49.1145 119.612 49.2277L123.826 60.4637ZM130.338 52.5465C129.837 48.5678 129.624 45.8622 129.624 44.2578H117.624C117.624 46.6482 117.918 49.9686 118.432 54.0472L130.338 52.5465ZM139.779 58.2441L135.918 62.8366L135.923 62.8408L139.779 58.2441ZM139.326 36.749L144.322 40.0718L144.326 40.065L144.331 40.0581L139.326 36.749ZM156.743 31.4814L159.011 25.9266L158.998 25.9213L158.985 25.9161L156.743 31.4814ZM160.566 38.4482L156.094 34.4475L156.076 34.4684L156.057 34.4894L160.566 38.4482ZM154.987 38.3066L151.287 43.03L151.33 43.064L151.374 43.0972L154.987 38.3066ZM145.131 41.252L139.977 38.18L139.969 38.1934L139.962 38.2067L145.131 41.252ZM144.848 53.0615L148.572 48.3572L148.566 48.3522L144.848 53.0615ZM160.962 52.8916L156.665 57.0788L156.692 57.1067L156.72 57.1342L160.962 52.8916ZM157.252 59.8301L159.733 65.2935L159.744 65.2885L159.755 65.2835L157.252 59.8301ZM150.229 55.7842C147.289 55.7842 145.226 54.9823 143.635 53.6475L135.923 62.8408C139.958 66.2261 144.861 67.7842 150.229 67.7842V55.7842ZM143.64 53.6516C142.112 52.3669 141.333 50.8029 141.333 48.3887H129.333C129.333 54.1307 131.517 59.137 135.918 62.8366L143.64 53.6516ZM141.333 48.3887C141.333 46.1043 142.132 43.3633 144.322 40.0718L134.33 33.4263C131.195 38.1399 129.333 43.1588 129.333 48.3887H141.333ZM144.331 40.0581C146.691 36.4888 148.571 35.8955 149.861 35.8955V23.8955C143.146 23.8955 138.002 27.8712 134.321 33.4399L144.331 40.0581ZM149.861 35.8955C150.797 35.8955 152.3 36.1604 154.501 37.0468L158.985 25.9161C155.936 24.6879 152.852 23.8955 149.861 23.8955V35.8955ZM154.475 37.0363C155.069 37.279 155.502 37.4958 155.804 37.6728C156.111 37.8527 156.223 37.9565 156.221 37.9542C156.216 37.9495 156.039 37.783 155.86 37.4241C155.667 37.0372 155.529 36.5372 155.529 35.9844H167.529C167.529 33.035 166.079 30.7526 164.444 29.2143C162.892 27.7541 160.942 26.7151 159.011 25.9266L154.475 37.0363ZM155.529 35.9844C155.529 35.7369 155.575 35.4295 155.7 35.1102C155.823 34.7947 155.982 34.5737 156.094 34.4475L165.037 42.449C166.62 40.6804 167.529 38.4502 167.529 35.9844H155.529ZM156.057 34.4894C156.251 34.2693 156.559 34.0133 156.977 33.8289C157.389 33.6476 157.738 33.6094 157.932 33.6094V45.6094C160.647 45.6094 163.199 44.5431 165.075 42.4071L156.057 34.4894ZM157.932 33.6094C158.585 33.6094 158.975 33.7791 159.014 33.7965C159.059 33.8164 158.925 33.7615 158.599 33.5161L151.374 43.0972C152.851 44.2108 155.14 45.6094 157.932 45.6094V33.6094ZM158.687 33.5833C156.037 31.5073 152.751 30.9756 149.861 30.9756V42.9756C150.635 42.9756 151.105 43.0528 151.348 43.1158C151.581 43.1763 151.498 43.1957 151.287 43.03L158.687 33.5833ZM149.861 30.9756C147.087 30.9756 144.954 32.3373 143.564 33.5942C142.157 34.8666 140.982 36.4951 139.977 38.18L150.285 44.3239C150.617 43.767 150.906 43.3432 151.146 43.0296C151.39 42.7116 151.549 42.5527 151.612 42.4952C151.799 42.3266 151.181 42.9756 149.861 42.9756V30.9756ZM139.962 38.2067C138.088 41.3867 136.696 44.8565 136.696 48.3887H148.696C148.696 47.9182 148.927 46.6302 150.301 44.2972L139.962 38.2067ZM136.696 48.3887C136.696 52.0295 138.12 55.3943 141.13 57.7708L148.566 48.3522C148.543 48.3344 148.559 48.3433 148.592 48.3841C148.607 48.4036 148.624 48.4271 148.641 48.4541C148.657 48.481 148.672 48.508 148.684 48.5335C148.708 48.5872 148.713 48.616 148.711 48.6041C148.708 48.5898 148.696 48.5225 148.696 48.3887H136.696ZM141.124 57.7658C143.813 59.8948 147.039 60.6758 150.229 60.6758V48.6758C148.963 48.6758 148.602 48.3806 148.572 48.3573L141.124 57.7658ZM150.229 60.6758C152.898 60.6758 155.459 59.7024 157.666 58.5421L152.081 47.9207C151.405 48.2762 150.902 48.478 150.557 48.5853C150.206 48.6945 150.115 48.6758 150.229 48.6758V60.6758ZM157.666 58.5421C158.509 58.0989 159.076 57.8317 159.416 57.6906C159.587 57.6197 159.617 57.6158 159.542 57.6377C159.5 57.6499 159.388 57.6813 159.22 57.7119C159.065 57.7402 158.761 57.7871 158.357 57.7871V45.7871C156.769 45.7871 155.331 46.394 154.82 46.6057C153.999 46.9461 153.07 47.4011 152.081 47.9207L157.666 58.5421ZM158.357 57.7871C158.128 57.7871 157.796 57.742 157.431 57.5874C157.068 57.4332 156.812 57.2301 156.665 57.0788L165.26 48.7044C163.424 46.82 161.01 45.7871 158.357 45.7871V57.7871ZM156.72 57.1342C156.631 57.0451 156.449 56.8323 156.295 56.4821C156.137 56.1206 156.067 55.7443 156.067 55.4121H168.067C168.067 52.7053 166.939 50.3832 165.205 48.649L156.72 57.1342ZM156.067 55.4121C156.067 54.6452 156.285 54.0347 156.497 53.6459C156.691 53.2904 156.859 53.1525 156.807 53.2003C156.76 53.2432 156.59 53.3855 156.228 53.6074C155.872 53.8252 155.388 54.0843 154.75 54.3767L159.755 65.2835C161.621 64.427 163.46 63.3814 164.92 62.0419C166.363 60.7175 168.067 58.4975 168.067 55.4121H156.067ZM154.772 54.3666C152.189 55.5395 150.773 55.7842 150.229 55.7842V67.7842C153.31 67.7842 156.577 66.7262 159.733 65.2935L154.772 54.3666ZM191.432 58.8379L186.149 61.6825L186.152 61.6866L191.432 58.8379ZM186.551 51.6992L181.838 55.4115L181.844 55.4195L186.551 51.6992ZM181.206 44.8926L186.006 41.2926L182.434 36.5311L177.644 40.0638L181.206 44.8926ZM176.823 47.8809L173.75 42.7272L171.063 44.3294L170.838 47.4503L176.823 47.8809ZM167.592 47.748L161.61 47.2937L161.608 47.3112L161.607 47.3287L167.592 47.748ZM168.124 28.8887L162.126 28.7283L162.125 28.744L162.125 28.7597L168.124 28.8887ZM168.124 14.5781L162.137 14.984L162.141 15.0388L162.146 15.0935L168.124 14.5781ZM169.286 8.03711L173.415 12.3899L173.444 12.3624L173.473 12.3345L169.286 8.03711ZM175.86 8.03711L171.673 12.3345L171.701 12.3624L171.73 12.3899L175.86 8.03711ZM177.288 27.4609L183.283 27.6915L183.284 27.6816L177.288 27.4609ZM177.122 36.6914L171.122 36.7406L171.221 48.8273L180.788 41.4407L177.122 36.6914ZM190.868 24.0078L195.103 28.2581L195.11 28.2505L190.868 24.0078ZM197.475 23.9082L193.335 28.2506L197.475 23.9082ZM197.608 30.0176L193.164 25.9867L193.149 26.0027L193.135 26.0188L197.608 30.0176ZM188.278 39.1816L184.305 34.685L180.086 38.4126L183.538 42.8604L188.278 39.1816ZM195.184 48.0801L199.981 44.4763L199.953 44.4386L199.924 44.4013L195.184 48.0801ZM198.737 60.0664L194.815 55.5255L194.786 55.5507L194.757 55.5763L198.737 60.0664ZM195.417 55.3613C195.463 55.3613 195.588 55.3673 195.766 55.416C195.948 55.4658 196.14 55.548 196.319 55.6616C196.693 55.8985 196.783 56.1194 196.713 55.9892L186.152 61.6866C186.989 63.2387 188.196 64.7213 189.899 65.7994C191.629 66.8951 193.537 67.3613 195.417 67.3613V55.3613ZM196.715 55.9933C195.402 53.5547 193.544 50.8706 191.259 47.9789L181.844 55.4195C183.897 58.0174 185.293 60.0924 186.149 61.6825L196.715 55.9933ZM191.265 47.9869C189.583 45.8515 188.299 44.2187 187.41 43.0875C186.966 42.5216 186.622 42.0838 186.379 41.7723C186.257 41.6163 186.163 41.4953 186.094 41.4072C186.015 41.3056 185.996 41.2797 186.006 41.2926L176.406 48.4926C176.661 48.8333 178.518 51.197 181.838 55.4115L191.265 47.9869ZM177.644 40.0638C175.945 41.317 174.661 42.1841 173.75 42.7272L179.895 53.0345C181.286 52.2052 182.924 51.0801 184.767 49.7214L177.644 40.0638ZM170.838 47.4503C170.608 50.6568 170.491 53.745 170.491 56.7129H182.491C182.491 54.0584 182.595 51.2586 182.807 48.3114L170.838 47.4503ZM170.491 56.7129C170.491 56.673 170.5 56.4812 170.608 56.2144C170.72 55.9397 170.878 55.7302 171.009 55.603L179.383 64.1978C181.487 62.1479 182.491 59.4977 182.491 56.7129H170.491ZM171.009 55.603C171.144 55.4708 171.343 55.3347 171.576 55.2451C171.799 55.1597 171.934 55.1621 171.909 55.1621V67.1621C174.627 67.1621 177.28 66.2465 179.383 64.1978L171.009 55.603ZM171.909 55.1621C171.712 55.1621 171.809 55.1315 172.075 55.2372C172.378 55.3574 172.72 55.5846 172.993 55.9103C173.248 56.2137 173.307 56.4391 173.298 56.4079C173.285 56.3613 173.227 56.1136 173.227 55.584H161.227C161.227 58.1369 161.741 61.1693 163.802 63.6248C166.031 66.2817 169.12 67.1621 171.909 67.1621V55.1621ZM173.227 55.584C173.227 54.0527 173.336 51.6111 173.578 48.1674L161.607 47.3287C161.361 50.8355 161.227 53.6179 161.227 55.584H173.227ZM173.575 48.2024C173.843 44.6721 173.991 41.8638 173.991 39.8789H161.991C161.991 41.3914 161.873 43.8292 161.61 47.2937L173.575 48.2024ZM173.991 39.8789C173.991 36.7223 174.034 33.1032 174.122 29.0177L162.125 28.7597C162.036 32.9085 161.991 36.6163 161.991 39.8789H173.991ZM174.121 29.049C174.233 24.8715 174.29 21.1638 174.29 17.9316H162.29C162.29 21.0302 162.235 24.6272 162.126 28.7283L174.121 29.049ZM174.29 17.9316C174.29 16.7599 174.222 15.4626 174.101 14.0628L162.146 15.0935C162.246 16.2614 162.29 17.1997 162.29 17.9316H174.29ZM174.11 14.1723C174.027 12.9553 173.991 11.9684 173.991 11.1914H161.991C161.991 12.3181 162.043 13.589 162.137 14.984L174.11 14.1723ZM173.991 11.1914C173.991 11.2302 173.982 11.4335 173.865 11.7186C173.744 12.0136 173.569 12.2441 173.415 12.3899L165.156 3.68433C162.998 5.73213 161.991 8.40615 161.991 11.1914H173.991ZM173.473 12.3345C173.337 12.4667 173.138 12.6028 172.905 12.6924C172.682 12.7778 172.548 12.7754 172.573 12.7754V0.775391C169.855 0.775391 167.201 1.69101 165.098 3.73973L173.473 12.3345ZM172.573 12.7754C172.598 12.7754 172.463 12.7778 172.241 12.6924C172.007 12.6028 171.808 12.4667 171.673 12.3345L180.047 3.73973C177.944 1.69101 175.291 0.775391 172.573 0.775391V12.7754ZM171.73 12.3899C171.577 12.2441 171.402 12.0136 171.281 11.7186C171.164 11.4335 171.155 11.2302 171.155 11.1914H183.155C183.155 8.40615 182.148 5.73213 179.989 3.68433L171.73 12.3899ZM171.155 11.1914C171.155 12.3794 171.222 13.7046 171.342 15.1428L183.3 14.1463C183.199 12.9282 183.155 11.9513 183.155 11.1914H171.155ZM171.342 15.1428C171.443 16.3608 171.487 17.3378 171.487 18.0977H183.487C183.487 16.9096 183.42 15.5845 183.3 14.1463L171.342 15.1428ZM171.487 18.0977C171.487 20.637 171.423 23.6809 171.292 27.2402L183.284 27.6816C183.418 24.0248 183.487 20.8266 183.487 18.0977H171.487ZM171.292 27.2303C171.157 30.7524 171.099 33.9253 171.122 36.7406L183.121 36.6422C183.1 34.0565 183.153 31.0757 183.283 27.6915L171.292 27.2303ZM180.788 41.4407C184.124 38.8649 188.938 34.4008 195.103 28.2581L186.633 19.7575C180.49 25.8779 176.14 29.8694 173.455 31.9422L180.788 41.4407ZM195.11 28.2505C195.144 28.217 195.06 28.3092 194.845 28.404C194.617 28.5041 194.379 28.5469 194.188 28.5469V16.5469C191.173 16.5469 188.587 17.803 186.625 19.7652L195.11 28.2505ZM194.188 28.5469C194.056 28.5469 193.856 28.5187 193.644 28.4306C193.546 28.3901 193.468 28.3462 193.412 28.3091C193.357 28.2726 193.332 28.2486 193.335 28.2506L201.616 19.5658C199.623 17.6657 197.07 16.5469 194.188 16.5469V28.5469ZM193.335 28.2506C193.33 28.2462 193.201 28.1191 193.08 27.8516C192.953 27.572 192.903 27.2869 192.903 27.0625H204.903C204.903 24.0527 203.623 21.48 201.616 19.5658L193.335 28.2506ZM192.903 27.0625C192.903 26.6965 192.986 26.3801 193.084 26.1568C193.173 25.9523 193.242 25.9004 193.164 25.9867L202.052 34.0485C203.644 32.2929 204.903 29.9317 204.903 27.0625H192.903ZM193.135 26.0188C190.71 28.7308 187.775 31.6198 184.305 34.685L192.25 43.6783C195.997 40.3685 199.282 37.1481 202.081 34.0164L193.135 26.0188ZM183.538 42.8604L190.444 51.7588L199.924 44.4013L193.018 35.5029L183.538 42.8604ZM190.387 51.6839C191.986 53.8123 193.065 55.4297 193.717 56.5869C194.042 57.1646 194.202 57.5236 194.268 57.6979C194.357 57.9362 194.198 57.6303 194.198 56.9785H206.198C206.198 54.523 205.016 52.1943 204.172 50.6963C203.152 48.8874 201.725 46.7971 199.981 44.4763L190.387 51.6839ZM194.198 56.9785C194.198 56.7624 194.247 56.4398 194.409 56.0976C194.567 55.7639 194.752 55.5803 194.815 55.5255L202.659 64.6073C204.867 62.7005 206.198 60.0498 206.198 56.9785H194.198ZM194.757 55.5763C194.75 55.5828 194.829 55.5128 194.996 55.4477C195.168 55.3808 195.323 55.3613 195.417 55.3613V67.3613C198.201 67.3613 200.705 66.3395 202.717 64.5565L194.757 55.5763Z" fill="url(#paint0_linear_52_458)" mask="url(#path-1-outside-1_52_458)"/>
<defs>
<linearGradient id="paint0_linear_52_458" x1="3" y1="11.1515" x2="204.514" y2="40.17" gradientUnits="userSpaceOnUse">
<stop stop-color="#FF0000"/>
<stop offset="0.175" stop-color="#FF6F00"/>
<stop offset="0.335" stop-color="#FFFB00"/>
<stop offset="0.515" stop-color="#09FF00"/>
<stop offset="0.675" stop-color="#00D5FF"/>
<stop offset="0.835" stop-color="#0055FF"/>
<stop offset="1" stop-color="#9500FF"/>
</linearGradient>
</defs>
</svg>
