<svg width="35" height="35" viewBox="0 0 35 35" fill="none" xmlns="http://www.w3.org/2000/svg">
<path d="M0.875 17.5C0.875 26.6678 8.3322 34.125 17.5 34.125C26.6665 34.125 34.125 26.6678 34.125 17.5C34.125 8.3322 26.6678 0.875 17.5 0.875C8.3322 0.875 0.875 8.3322 0.875 17.5ZM3.765 17.5C3.765 9.92624 9.92624 3.765 17.5 3.765C25.0725 3.765 31.235 9.92624 31.235 17.5C31.235 25.0738 25.0738 31.235 17.5 31.235C9.92624 31.235 3.765 25.0738 3.765 17.5ZM8.92 18.8394H17.3944C17.7776 18.8394 18.1452 18.6872 18.4162 18.4162C18.6872 18.1452 18.8394 17.7776 18.8394 17.3944V6.28C18.8394 5.89676 18.6872 5.52922 18.4162 5.25823C18.1452 4.98724 17.7776 4.835 17.3944 4.835C17.0112 4.835 16.6436 4.98724 16.3726 5.25823C16.1016 5.52922 15.9494 5.89676 15.9494 6.28V15.9494H8.92C8.53676 15.9494 8.16922 16.1016 7.89823 16.3726C7.62724 16.6436 7.475 17.0112 7.475 17.3944C7.475 17.7776 7.62724 18.1452 7.89823 18.4162C8.16922 18.6872 8.53676 18.8394 8.92 18.8394Z" fill="black" stroke="black" stroke-width="0.25"/>
</svg>
